<mxfile host="Electron" agent="Mozilla/5.0 (Windows NT 10.0; Win64; x64) AppleWebKit/537.36 (KHTML, like Gecko) draw.io/28.0.6 Chrome/138.0.7204.100 Electron/37.2.3 Safari/537.36" version="28.0.6" pages="3">
  <diagram id="C5RBs43oDa-KdzZeNtuy" name="Page-1">
    <mxGraphModel dx="2328" dy="885" grid="1" gridSize="10" guides="1" tooltips="1" connect="1" arrows="1" fold="1" page="1" pageScale="1" pageWidth="827" pageHeight="1169" math="0" shadow="0">
      <root>
        <mxCell id="WIyWlLk6GJQsqaUBKTNV-0" />
        <mxCell id="WIyWlLk6GJQsqaUBKTNV-1" parent="WIyWlLk6GJQsqaUBKTNV-0" />
        <mxCell id="8N_FcMI9_JePkyyZ4MbF-60" style="edgeStyle=orthogonalEdgeStyle;rounded=0;orthogonalLoop=1;jettySize=auto;html=1;entryX=0.5;entryY=0;entryDx=0;entryDy=0;" parent="WIyWlLk6GJQsqaUBKTNV-1" source="WIyWlLk6GJQsqaUBKTNV-3" target="8N_FcMI9_JePkyyZ4MbF-59" edge="1">
          <mxGeometry relative="1" as="geometry" />
        </mxCell>
        <mxCell id="WIyWlLk6GJQsqaUBKTNV-3" value="Начало" style="rounded=1;whiteSpace=wrap;html=1;fontSize=12;glass=0;strokeWidth=1;shadow=0;" parent="WIyWlLk6GJQsqaUBKTNV-1" vertex="1">
          <mxGeometry x="-200" y="40" width="120" height="40" as="geometry" />
        </mxCell>
        <mxCell id="WIyWlLk6GJQsqaUBKTNV-11" value="Конец" style="rounded=1;whiteSpace=wrap;html=1;fontSize=12;glass=0;strokeWidth=1;shadow=0;" parent="WIyWlLk6GJQsqaUBKTNV-1" vertex="1">
          <mxGeometry x="-410" y="870" width="120" height="40" as="geometry" />
        </mxCell>
        <mxCell id="8N_FcMI9_JePkyyZ4MbF-3" style="edgeStyle=orthogonalEdgeStyle;rounded=0;orthogonalLoop=1;jettySize=auto;html=1;exitX=1;exitY=0.5;exitDx=0;exitDy=0;entryX=0.5;entryY=0;entryDx=0;entryDy=0;" parent="WIyWlLk6GJQsqaUBKTNV-1" source="8N_FcMI9_JePkyyZ4MbF-0" target="8N_FcMI9_JePkyyZ4MbF-1" edge="1">
          <mxGeometry relative="1" as="geometry" />
        </mxCell>
        <mxCell id="veDKGBILxuSOt_c6IYAu-9" style="edgeStyle=orthogonalEdgeStyle;rounded=0;orthogonalLoop=1;jettySize=auto;html=1;exitX=0;exitY=0.5;exitDx=0;exitDy=0;entryX=0.5;entryY=0;entryDx=0;entryDy=0;" parent="WIyWlLk6GJQsqaUBKTNV-1" source="8N_FcMI9_JePkyyZ4MbF-0" target="XB72b0_UV2uOKMiOkbT4-26" edge="1">
          <mxGeometry relative="1" as="geometry">
            <mxPoint x="104" y="870.0000000000002" as="targetPoint" />
          </mxGeometry>
        </mxCell>
        <mxCell id="8N_FcMI9_JePkyyZ4MbF-0" value="IsRootExist" style="rhombus;whiteSpace=wrap;html=1;" parent="WIyWlLk6GJQsqaUBKTNV-1" vertex="1">
          <mxGeometry x="151" y="790" width="140" height="80" as="geometry" />
        </mxCell>
        <mxCell id="8N_FcMI9_JePkyyZ4MbF-62" style="edgeStyle=orthogonalEdgeStyle;rounded=0;orthogonalLoop=1;jettySize=auto;html=1;" parent="WIyWlLk6GJQsqaUBKTNV-1" source="8N_FcMI9_JePkyyZ4MbF-1" target="8N_FcMI9_JePkyyZ4MbF-61" edge="1">
          <mxGeometry relative="1" as="geometry" />
        </mxCell>
        <mxCell id="8N_FcMI9_JePkyyZ4MbF-65" style="edgeStyle=orthogonalEdgeStyle;rounded=0;orthogonalLoop=1;jettySize=auto;html=1;entryX=0;entryY=0.5;entryDx=0;entryDy=0;exitX=1;exitY=0.5;exitDx=0;exitDy=0;" parent="WIyWlLk6GJQsqaUBKTNV-1" source="8N_FcMI9_JePkyyZ4MbF-61" target="8N_FcMI9_JePkyyZ4MbF-64" edge="1">
          <mxGeometry relative="1" as="geometry" />
        </mxCell>
        <mxCell id="8N_FcMI9_JePkyyZ4MbF-1" value="InitRoot()" style="rounded=0;whiteSpace=wrap;html=1;" parent="WIyWlLk6GJQsqaUBKTNV-1" vertex="1">
          <mxGeometry x="281" y="870" width="140" height="60" as="geometry" />
        </mxCell>
        <mxCell id="XB72b0_UV2uOKMiOkbT4-63" style="edgeStyle=orthogonalEdgeStyle;rounded=0;orthogonalLoop=1;jettySize=auto;html=1;entryX=0.5;entryY=0;entryDx=0;entryDy=0;" parent="WIyWlLk6GJQsqaUBKTNV-1" source="8N_FcMI9_JePkyyZ4MbF-2" target="XB72b0_UV2uOKMiOkbT4-61" edge="1">
          <mxGeometry relative="1" as="geometry" />
        </mxCell>
        <mxCell id="8N_FcMI9_JePkyyZ4MbF-2" value="Cluster.Spawn()" style="rounded=0;whiteSpace=wrap;html=1;" parent="WIyWlLk6GJQsqaUBKTNV-1" vertex="1">
          <mxGeometry x="880" y="604" width="140" height="60" as="geometry" />
        </mxCell>
        <mxCell id="8N_FcMI9_JePkyyZ4MbF-43" style="edgeStyle=orthogonalEdgeStyle;rounded=0;orthogonalLoop=1;jettySize=auto;html=1;entryX=0.5;entryY=0;entryDx=0;entryDy=0;" parent="WIyWlLk6GJQsqaUBKTNV-1" source="8N_FcMI9_JePkyyZ4MbF-8" target="8N_FcMI9_JePkyyZ4MbF-42" edge="1">
          <mxGeometry relative="1" as="geometry" />
        </mxCell>
        <mxCell id="8N_FcMI9_JePkyyZ4MbF-8" value="args" style="shape=parallelogram;perimeter=parallelogramPerimeter;whiteSpace=wrap;html=1;fixedSize=1;" parent="WIyWlLk6GJQsqaUBKTNV-1" vertex="1">
          <mxGeometry y="130" width="140" height="60" as="geometry" />
        </mxCell>
        <mxCell id="8N_FcMI9_JePkyyZ4MbF-51" style="edgeStyle=orthogonalEdgeStyle;rounded=0;orthogonalLoop=1;jettySize=auto;html=1;exitX=0.5;exitY=1;exitDx=0;exitDy=0;entryX=0.5;entryY=0;entryDx=0;entryDy=0;" parent="WIyWlLk6GJQsqaUBKTNV-1" source="8N_FcMI9_JePkyyZ4MbF-10" target="8N_FcMI9_JePkyyZ4MbF-50" edge="1">
          <mxGeometry relative="1" as="geometry" />
        </mxCell>
        <mxCell id="8N_FcMI9_JePkyyZ4MbF-10" value="rootApiKey" style="shape=parallelogram;perimeter=parallelogramPerimeter;whiteSpace=wrap;html=1;fixedSize=1;" parent="WIyWlLk6GJQsqaUBKTNV-1" vertex="1">
          <mxGeometry x="281" y="1050" width="140" height="60" as="geometry" />
        </mxCell>
        <mxCell id="8N_FcMI9_JePkyyZ4MbF-26" style="edgeStyle=orthogonalEdgeStyle;rounded=0;orthogonalLoop=1;jettySize=auto;html=1;exitX=0.5;exitY=1;exitDx=0;exitDy=0;entryX=0.5;entryY=0;entryDx=0;entryDy=0;" parent="WIyWlLk6GJQsqaUBKTNV-1" source="8N_FcMI9_JePkyyZ4MbF-13" target="8N_FcMI9_JePkyyZ4MbF-22" edge="1">
          <mxGeometry relative="1" as="geometry" />
        </mxCell>
        <mxCell id="8N_FcMI9_JePkyyZ4MbF-13" value="DB.TryConnect()" style="rounded=0;whiteSpace=wrap;html=1;" parent="WIyWlLk6GJQsqaUBKTNV-1" vertex="1">
          <mxGeometry x="810" y="130" width="120" height="60" as="geometry" />
        </mxCell>
        <mxCell id="8N_FcMI9_JePkyyZ4MbF-21" style="edgeStyle=orthogonalEdgeStyle;rounded=0;orthogonalLoop=1;jettySize=auto;html=1;entryX=0.5;entryY=0;entryDx=0;entryDy=0;" parent="WIyWlLk6GJQsqaUBKTNV-1" source="8N_FcMI9_JePkyyZ4MbF-14" target="8N_FcMI9_JePkyyZ4MbF-19" edge="1">
          <mxGeometry relative="1" as="geometry" />
        </mxCell>
        <mxCell id="8N_FcMI9_JePkyyZ4MbF-14" value="E" style="ellipse;whiteSpace=wrap;html=1;aspect=fixed;fillColor=#e51400;fontColor=#ffffff;strokeColor=#B20000;" parent="WIyWlLk6GJQsqaUBKTNV-1" vertex="1">
          <mxGeometry x="-530" y="580" width="60" height="60" as="geometry" />
        </mxCell>
        <mxCell id="8N_FcMI9_JePkyyZ4MbF-18" style="edgeStyle=orthogonalEdgeStyle;rounded=0;orthogonalLoop=1;jettySize=auto;html=1;entryX=0.5;entryY=0;entryDx=0;entryDy=0;" parent="WIyWlLk6GJQsqaUBKTNV-1" source="8N_FcMI9_JePkyyZ4MbF-16" target="WIyWlLk6GJQsqaUBKTNV-11" edge="1">
          <mxGeometry relative="1" as="geometry" />
        </mxCell>
        <mxCell id="8N_FcMI9_JePkyyZ4MbF-16" value="Error.Message" style="shape=parallelogram;perimeter=parallelogramPerimeter;whiteSpace=wrap;html=1;fixedSize=1;" parent="WIyWlLk6GJQsqaUBKTNV-1" vertex="1">
          <mxGeometry x="-560" y="780" width="120" height="60" as="geometry" />
        </mxCell>
        <mxCell id="8N_FcMI9_JePkyyZ4MbF-20" style="edgeStyle=orthogonalEdgeStyle;rounded=0;orthogonalLoop=1;jettySize=auto;html=1;entryX=0.5;entryY=0;entryDx=0;entryDy=0;" parent="WIyWlLk6GJQsqaUBKTNV-1" source="8N_FcMI9_JePkyyZ4MbF-19" target="8N_FcMI9_JePkyyZ4MbF-16" edge="1">
          <mxGeometry relative="1" as="geometry" />
        </mxCell>
        <mxCell id="8N_FcMI9_JePkyyZ4MbF-19" value="Logger.Error" style="rounded=0;whiteSpace=wrap;html=1;" parent="WIyWlLk6GJQsqaUBKTNV-1" vertex="1">
          <mxGeometry x="-560" y="680" width="120" height="60" as="geometry" />
        </mxCell>
        <mxCell id="8N_FcMI9_JePkyyZ4MbF-28" style="edgeStyle=orthogonalEdgeStyle;rounded=0;orthogonalLoop=1;jettySize=auto;html=1;exitX=1;exitY=0.5;exitDx=0;exitDy=0;entryX=0;entryY=0.5;entryDx=0;entryDy=0;" parent="WIyWlLk6GJQsqaUBKTNV-1" source="8N_FcMI9_JePkyyZ4MbF-22" target="8N_FcMI9_JePkyyZ4MbF-27" edge="1">
          <mxGeometry relative="1" as="geometry" />
        </mxCell>
        <mxCell id="8N_FcMI9_JePkyyZ4MbF-31" style="edgeStyle=orthogonalEdgeStyle;rounded=0;orthogonalLoop=1;jettySize=auto;html=1;exitX=0.5;exitY=1;exitDx=0;exitDy=0;entryX=0.5;entryY=0;entryDx=0;entryDy=0;" parent="WIyWlLk6GJQsqaUBKTNV-1" source="8N_FcMI9_JePkyyZ4MbF-22" target="8N_FcMI9_JePkyyZ4MbF-30" edge="1">
          <mxGeometry relative="1" as="geometry" />
        </mxCell>
        <mxCell id="8N_FcMI9_JePkyyZ4MbF-22" value="IsSuccess" style="rhombus;whiteSpace=wrap;html=1;" parent="WIyWlLk6GJQsqaUBKTNV-1" vertex="1">
          <mxGeometry x="810" y="220" width="120" height="60" as="geometry" />
        </mxCell>
        <mxCell id="8N_FcMI9_JePkyyZ4MbF-25" style="edgeStyle=orthogonalEdgeStyle;rounded=0;orthogonalLoop=1;jettySize=auto;html=1;entryX=0.5;entryY=0;entryDx=0;entryDy=0;" parent="WIyWlLk6GJQsqaUBKTNV-1" source="8N_FcMI9_JePkyyZ4MbF-24" target="8N_FcMI9_JePkyyZ4MbF-13" edge="1">
          <mxGeometry relative="1" as="geometry" />
        </mxCell>
        <mxCell id="8N_FcMI9_JePkyyZ4MbF-24" value="A" style="ellipse;whiteSpace=wrap;html=1;aspect=fixed;fillColor=#6d8764;fontColor=#ffffff;strokeColor=#3A5431;" parent="WIyWlLk6GJQsqaUBKTNV-1" vertex="1">
          <mxGeometry x="840" y="40" width="60" height="60" as="geometry" />
        </mxCell>
        <mxCell id="8N_FcMI9_JePkyyZ4MbF-27" value="E" style="ellipse;whiteSpace=wrap;html=1;aspect=fixed;fillColor=#e51400;fontColor=#ffffff;strokeColor=#B20000;" parent="WIyWlLk6GJQsqaUBKTNV-1" vertex="1">
          <mxGeometry x="970" y="220" width="60" height="60" as="geometry" />
        </mxCell>
        <mxCell id="8N_FcMI9_JePkyyZ4MbF-30" value="B" style="ellipse;whiteSpace=wrap;html=1;aspect=fixed;fillColor=#6d8764;fontColor=#ffffff;strokeColor=#3A5431;" parent="WIyWlLk6GJQsqaUBKTNV-1" vertex="1">
          <mxGeometry x="840" y="310" width="60" height="60" as="geometry" />
        </mxCell>
        <mxCell id="8N_FcMI9_JePkyyZ4MbF-39" style="edgeStyle=orthogonalEdgeStyle;rounded=0;orthogonalLoop=1;jettySize=auto;html=1;entryX=0.5;entryY=0;entryDx=0;entryDy=0;" parent="WIyWlLk6GJQsqaUBKTNV-1" source="8N_FcMI9_JePkyyZ4MbF-33" target="8N_FcMI9_JePkyyZ4MbF-34" edge="1">
          <mxGeometry relative="1" as="geometry" />
        </mxCell>
        <mxCell id="8N_FcMI9_JePkyyZ4MbF-33" value="ArgParser.Parse()" style="rounded=0;whiteSpace=wrap;html=1;" parent="WIyWlLk6GJQsqaUBKTNV-1" vertex="1">
          <mxGeometry x="1090" y="130" width="120" height="60" as="geometry" />
        </mxCell>
        <mxCell id="8N_FcMI9_JePkyyZ4MbF-40" style="edgeStyle=orthogonalEdgeStyle;rounded=0;orthogonalLoop=1;jettySize=auto;html=1;entryX=0.5;entryY=0;entryDx=0;entryDy=0;" parent="WIyWlLk6GJQsqaUBKTNV-1" source="8N_FcMI9_JePkyyZ4MbF-34" target="8N_FcMI9_JePkyyZ4MbF-37" edge="1">
          <mxGeometry relative="1" as="geometry" />
        </mxCell>
        <mxCell id="8N_FcMI9_JePkyyZ4MbF-41" style="edgeStyle=orthogonalEdgeStyle;rounded=0;orthogonalLoop=1;jettySize=auto;html=1;entryX=0;entryY=0.5;entryDx=0;entryDy=0;" parent="WIyWlLk6GJQsqaUBKTNV-1" source="8N_FcMI9_JePkyyZ4MbF-34" target="8N_FcMI9_JePkyyZ4MbF-36" edge="1">
          <mxGeometry relative="1" as="geometry" />
        </mxCell>
        <mxCell id="8N_FcMI9_JePkyyZ4MbF-34" value="IsSuccess" style="rhombus;whiteSpace=wrap;html=1;" parent="WIyWlLk6GJQsqaUBKTNV-1" vertex="1">
          <mxGeometry x="1090" y="220" width="120" height="60" as="geometry" />
        </mxCell>
        <mxCell id="8N_FcMI9_JePkyyZ4MbF-38" style="edgeStyle=orthogonalEdgeStyle;rounded=0;orthogonalLoop=1;jettySize=auto;html=1;exitX=0.5;exitY=1;exitDx=0;exitDy=0;entryX=0.5;entryY=0;entryDx=0;entryDy=0;" parent="WIyWlLk6GJQsqaUBKTNV-1" source="8N_FcMI9_JePkyyZ4MbF-35" target="8N_FcMI9_JePkyyZ4MbF-33" edge="1">
          <mxGeometry relative="1" as="geometry" />
        </mxCell>
        <mxCell id="8N_FcMI9_JePkyyZ4MbF-35" value="C" style="ellipse;whiteSpace=wrap;html=1;aspect=fixed;fillColor=#6d8764;fontColor=#ffffff;strokeColor=#3A5431;" parent="WIyWlLk6GJQsqaUBKTNV-1" vertex="1">
          <mxGeometry x="1120" y="40" width="60" height="60" as="geometry" />
        </mxCell>
        <mxCell id="8N_FcMI9_JePkyyZ4MbF-36" value="E" style="ellipse;whiteSpace=wrap;html=1;aspect=fixed;fillColor=#e51400;fontColor=#ffffff;strokeColor=#B20000;" parent="WIyWlLk6GJQsqaUBKTNV-1" vertex="1">
          <mxGeometry x="1250" y="220" width="60" height="60" as="geometry" />
        </mxCell>
        <mxCell id="8N_FcMI9_JePkyyZ4MbF-37" value="D" style="ellipse;whiteSpace=wrap;html=1;aspect=fixed;fillColor=#6d8764;fontColor=#ffffff;strokeColor=#3A5431;" parent="WIyWlLk6GJQsqaUBKTNV-1" vertex="1">
          <mxGeometry x="1120" y="310" width="60" height="60" as="geometry" />
        </mxCell>
        <mxCell id="8N_FcMI9_JePkyyZ4MbF-42" value="C" style="ellipse;whiteSpace=wrap;html=1;aspect=fixed;fillColor=#6d8764;fontColor=#ffffff;strokeColor=#3A5431;" parent="WIyWlLk6GJQsqaUBKTNV-1" vertex="1">
          <mxGeometry x="40" y="220" width="60" height="60" as="geometry" />
        </mxCell>
        <mxCell id="8N_FcMI9_JePkyyZ4MbF-44" value="A" style="ellipse;whiteSpace=wrap;html=1;aspect=fixed;fillColor=#6d8764;fontColor=#ffffff;strokeColor=#3A5431;" parent="WIyWlLk6GJQsqaUBKTNV-1" vertex="1">
          <mxGeometry x="367" y="540" width="60" height="60" as="geometry" />
        </mxCell>
        <mxCell id="8N_FcMI9_JePkyyZ4MbF-47" style="edgeStyle=orthogonalEdgeStyle;rounded=0;orthogonalLoop=1;jettySize=auto;html=1;entryX=0.5;entryY=0;entryDx=0;entryDy=0;" parent="WIyWlLk6GJQsqaUBKTNV-1" source="8N_FcMI9_JePkyyZ4MbF-46" target="WIyWlLk6GJQsqaUBKTNV-11" edge="1">
          <mxGeometry relative="1" as="geometry" />
        </mxCell>
        <mxCell id="8N_FcMI9_JePkyyZ4MbF-46" value="T" style="ellipse;whiteSpace=wrap;html=1;aspect=fixed;fillColor=#76608a;fontColor=#ffffff;strokeColor=#432D57;" parent="WIyWlLk6GJQsqaUBKTNV-1" vertex="1">
          <mxGeometry x="-380" y="580" width="60" height="60" as="geometry" />
        </mxCell>
        <mxCell id="8N_FcMI9_JePkyyZ4MbF-49" style="edgeStyle=orthogonalEdgeStyle;rounded=0;orthogonalLoop=1;jettySize=auto;html=1;entryX=0.5;entryY=0;entryDx=0;entryDy=0;" parent="WIyWlLk6GJQsqaUBKTNV-1" source="8N_FcMI9_JePkyyZ4MbF-48" target="8N_FcMI9_JePkyyZ4MbF-0" edge="1">
          <mxGeometry relative="1" as="geometry" />
        </mxCell>
        <mxCell id="8N_FcMI9_JePkyyZ4MbF-48" value="RR" style="ellipse;whiteSpace=wrap;html=1;aspect=fixed;fillColor=#fa6800;fontColor=#000000;strokeColor=#C73500;" parent="WIyWlLk6GJQsqaUBKTNV-1" vertex="1">
          <mxGeometry x="74" y="710" width="60" height="60" as="geometry" />
        </mxCell>
        <mxCell id="8N_FcMI9_JePkyyZ4MbF-53" style="edgeStyle=orthogonalEdgeStyle;rounded=0;orthogonalLoop=1;jettySize=auto;html=1;exitX=0.5;exitY=1;exitDx=0;exitDy=0;" parent="WIyWlLk6GJQsqaUBKTNV-1" source="8N_FcMI9_JePkyyZ4MbF-50" target="8N_FcMI9_JePkyyZ4MbF-52" edge="1">
          <mxGeometry relative="1" as="geometry" />
        </mxCell>
        <mxCell id="8N_FcMI9_JePkyyZ4MbF-50" value="rootInfo" style="shape=parallelogram;perimeter=parallelogramPerimeter;whiteSpace=wrap;html=1;fixedSize=1;" parent="WIyWlLk6GJQsqaUBKTNV-1" vertex="1">
          <mxGeometry x="281" y="1140" width="140" height="60" as="geometry" />
        </mxCell>
        <mxCell id="8N_FcMI9_JePkyyZ4MbF-52" value="RR" style="ellipse;whiteSpace=wrap;html=1;aspect=fixed;fillColor=#fa6800;fontColor=#000000;strokeColor=#C73500;" parent="WIyWlLk6GJQsqaUBKTNV-1" vertex="1">
          <mxGeometry x="321" y="1230" width="60" height="60" as="geometry" />
        </mxCell>
        <mxCell id="XB72b0_UV2uOKMiOkbT4-14" style="edgeStyle=orthogonalEdgeStyle;rounded=0;orthogonalLoop=1;jettySize=auto;html=1;entryX=0.5;entryY=0;entryDx=0;entryDy=0;" parent="WIyWlLk6GJQsqaUBKTNV-1" source="8N_FcMI9_JePkyyZ4MbF-55" target="XB72b0_UV2uOKMiOkbT4-3" edge="1">
          <mxGeometry relative="1" as="geometry" />
        </mxCell>
        <mxCell id="8N_FcMI9_JePkyyZ4MbF-55" value="D" style="ellipse;whiteSpace=wrap;html=1;aspect=fixed;fillColor=#6d8764;fontColor=#ffffff;strokeColor=#3A5431;" parent="WIyWlLk6GJQsqaUBKTNV-1" vertex="1">
          <mxGeometry x="367" y="40" width="60" height="60" as="geometry" />
        </mxCell>
        <mxCell id="XB72b0_UV2uOKMiOkbT4-25" style="edgeStyle=orthogonalEdgeStyle;rounded=0;orthogonalLoop=1;jettySize=auto;html=1;" parent="WIyWlLk6GJQsqaUBKTNV-1" source="8N_FcMI9_JePkyyZ4MbF-57" target="veDKGBILxuSOt_c6IYAu-0" edge="1">
          <mxGeometry relative="1" as="geometry" />
        </mxCell>
        <mxCell id="8N_FcMI9_JePkyyZ4MbF-57" value="B" style="ellipse;whiteSpace=wrap;html=1;aspect=fixed;fillColor=#6d8764;fontColor=#ffffff;strokeColor=#3A5431;" parent="WIyWlLk6GJQsqaUBKTNV-1" vertex="1">
          <mxGeometry x="720" y="754" width="60" height="60" as="geometry" />
        </mxCell>
        <mxCell id="8N_FcMI9_JePkyyZ4MbF-59" value="S" style="ellipse;whiteSpace=wrap;html=1;aspect=fixed;fillColor=#76608a;fontColor=#ffffff;strokeColor=#432D57;" parent="WIyWlLk6GJQsqaUBKTNV-1" vertex="1">
          <mxGeometry x="-170" y="120" width="60" height="60" as="geometry" />
        </mxCell>
        <mxCell id="8N_FcMI9_JePkyyZ4MbF-63" style="edgeStyle=orthogonalEdgeStyle;rounded=0;orthogonalLoop=1;jettySize=auto;html=1;entryX=0.5;entryY=0;entryDx=0;entryDy=0;" parent="WIyWlLk6GJQsqaUBKTNV-1" source="8N_FcMI9_JePkyyZ4MbF-61" target="8N_FcMI9_JePkyyZ4MbF-10" edge="1">
          <mxGeometry relative="1" as="geometry" />
        </mxCell>
        <mxCell id="8N_FcMI9_JePkyyZ4MbF-61" value="IsSuccess" style="rhombus;whiteSpace=wrap;html=1;" parent="WIyWlLk6GJQsqaUBKTNV-1" vertex="1">
          <mxGeometry x="291" y="960" width="120" height="60" as="geometry" />
        </mxCell>
        <mxCell id="8N_FcMI9_JePkyyZ4MbF-64" value="E" style="ellipse;whiteSpace=wrap;html=1;aspect=fixed;fillColor=#e51400;fontColor=#ffffff;strokeColor=#B20000;" parent="WIyWlLk6GJQsqaUBKTNV-1" vertex="1">
          <mxGeometry x="464" y="960" width="60" height="60" as="geometry" />
        </mxCell>
        <mxCell id="8N_FcMI9_JePkyyZ4MbF-68" style="edgeStyle=orthogonalEdgeStyle;rounded=0;orthogonalLoop=1;jettySize=auto;html=1;entryX=0;entryY=0.5;entryDx=0;entryDy=0;" parent="WIyWlLk6GJQsqaUBKTNV-1" source="8N_FcMI9_JePkyyZ4MbF-66" target="8N_FcMI9_JePkyyZ4MbF-67" edge="1">
          <mxGeometry relative="1" as="geometry" />
        </mxCell>
        <mxCell id="8N_FcMI9_JePkyyZ4MbF-74" style="edgeStyle=orthogonalEdgeStyle;rounded=0;orthogonalLoop=1;jettySize=auto;html=1;exitX=0.5;exitY=1;exitDx=0;exitDy=0;entryX=0.5;entryY=0;entryDx=0;entryDy=0;" parent="WIyWlLk6GJQsqaUBKTNV-1" source="8N_FcMI9_JePkyyZ4MbF-66" target="8N_FcMI9_JePkyyZ4MbF-69" edge="1">
          <mxGeometry relative="1" as="geometry" />
        </mxCell>
        <mxCell id="8N_FcMI9_JePkyyZ4MbF-66" value="true" style="rhombus;whiteSpace=wrap;html=1;" parent="WIyWlLk6GJQsqaUBKTNV-1" vertex="1">
          <mxGeometry x="920" y="1574" width="120" height="60" as="geometry" />
        </mxCell>
        <mxCell id="8N_FcMI9_JePkyyZ4MbF-67" value="T" style="ellipse;whiteSpace=wrap;html=1;aspect=fixed;fillColor=#76608a;fontColor=#ffffff;strokeColor=#432D57;" parent="WIyWlLk6GJQsqaUBKTNV-1" vertex="1">
          <mxGeometry x="1100" y="1574" width="60" height="60" as="geometry" />
        </mxCell>
        <mxCell id="XB72b0_UV2uOKMiOkbT4-65" style="edgeStyle=orthogonalEdgeStyle;rounded=0;orthogonalLoop=1;jettySize=auto;html=1;entryX=0.5;entryY=0;entryDx=0;entryDy=0;" parent="WIyWlLk6GJQsqaUBKTNV-1" source="8N_FcMI9_JePkyyZ4MbF-69" target="XB72b0_UV2uOKMiOkbT4-64" edge="1">
          <mxGeometry relative="1" as="geometry" />
        </mxCell>
        <mxCell id="8N_FcMI9_JePkyyZ4MbF-69" value="HandleApi()" style="rounded=0;whiteSpace=wrap;html=1;" parent="WIyWlLk6GJQsqaUBKTNV-1" vertex="1">
          <mxGeometry x="910" y="1724" width="140" height="60" as="geometry" />
        </mxCell>
        <mxCell id="8N_FcMI9_JePkyyZ4MbF-77" style="edgeStyle=orthogonalEdgeStyle;rounded=0;orthogonalLoop=1;jettySize=auto;html=1;entryX=0.5;entryY=0;entryDx=0;entryDy=0;" parent="WIyWlLk6GJQsqaUBKTNV-1" source="8N_FcMI9_JePkyyZ4MbF-76" target="8N_FcMI9_JePkyyZ4MbF-8" edge="1">
          <mxGeometry relative="1" as="geometry" />
        </mxCell>
        <mxCell id="8N_FcMI9_JePkyyZ4MbF-76" value="S" style="ellipse;whiteSpace=wrap;html=1;aspect=fixed;fillColor=#76608a;fontColor=#ffffff;strokeColor=#432D57;" parent="WIyWlLk6GJQsqaUBKTNV-1" vertex="1">
          <mxGeometry x="40" y="40" width="60" height="60" as="geometry" />
        </mxCell>
        <mxCell id="veDKGBILxuSOt_c6IYAu-3" style="edgeStyle=orthogonalEdgeStyle;rounded=0;orthogonalLoop=1;jettySize=auto;html=1;exitX=0.5;exitY=1;exitDx=0;exitDy=0;entryX=0.5;entryY=0;entryDx=0;entryDy=0;" parent="WIyWlLk6GJQsqaUBKTNV-1" source="veDKGBILxuSOt_c6IYAu-0" target="veDKGBILxuSOt_c6IYAu-1" edge="1">
          <mxGeometry relative="1" as="geometry" />
        </mxCell>
        <mxCell id="veDKGBILxuSOt_c6IYAu-0" value="mode" style="rhombus;whiteSpace=wrap;html=1;" parent="WIyWlLk6GJQsqaUBKTNV-1" vertex="1">
          <mxGeometry x="680" y="844" width="140" height="80" as="geometry" />
        </mxCell>
        <mxCell id="veDKGBILxuSOt_c6IYAu-4" style="edgeStyle=orthogonalEdgeStyle;rounded=0;orthogonalLoop=1;jettySize=auto;html=1;exitX=0.5;exitY=1;exitDx=0;exitDy=0;entryX=0.5;entryY=0;entryDx=0;entryDy=0;" parent="WIyWlLk6GJQsqaUBKTNV-1" source="veDKGBILxuSOt_c6IYAu-1" target="veDKGBILxuSOt_c6IYAu-2" edge="1">
          <mxGeometry relative="1" as="geometry" />
        </mxCell>
        <mxCell id="XB72b0_UV2uOKMiOkbT4-28" style="edgeStyle=orthogonalEdgeStyle;rounded=0;orthogonalLoop=1;jettySize=auto;html=1;entryX=0;entryY=0.5;entryDx=0;entryDy=0;" parent="WIyWlLk6GJQsqaUBKTNV-1" source="veDKGBILxuSOt_c6IYAu-1" target="XB72b0_UV2uOKMiOkbT4-27" edge="1">
          <mxGeometry relative="1" as="geometry" />
        </mxCell>
        <mxCell id="veDKGBILxuSOt_c6IYAu-1" value="cluster" style="rhombus;whiteSpace=wrap;html=1;" parent="WIyWlLk6GJQsqaUBKTNV-1" vertex="1">
          <mxGeometry x="680" y="954" width="140" height="80" as="geometry" />
        </mxCell>
        <mxCell id="veDKGBILxuSOt_c6IYAu-13" style="edgeStyle=orthogonalEdgeStyle;rounded=0;orthogonalLoop=1;jettySize=auto;html=1;exitX=1;exitY=0.5;exitDx=0;exitDy=0;entryX=0;entryY=0.5;entryDx=0;entryDy=0;" parent="WIyWlLk6GJQsqaUBKTNV-1" source="veDKGBILxuSOt_c6IYAu-2" target="veDKGBILxuSOt_c6IYAu-11" edge="1">
          <mxGeometry relative="1" as="geometry" />
        </mxCell>
        <mxCell id="veDKGBILxuSOt_c6IYAu-37" style="edgeStyle=orthogonalEdgeStyle;rounded=0;orthogonalLoop=1;jettySize=auto;html=1;entryX=0.5;entryY=0;entryDx=0;entryDy=0;" parent="WIyWlLk6GJQsqaUBKTNV-1" source="veDKGBILxuSOt_c6IYAu-2" target="veDKGBILxuSOt_c6IYAu-36" edge="1">
          <mxGeometry relative="1" as="geometry" />
        </mxCell>
        <mxCell id="veDKGBILxuSOt_c6IYAu-2" value="volume" style="rhombus;whiteSpace=wrap;html=1;" parent="WIyWlLk6GJQsqaUBKTNV-1" vertex="1">
          <mxGeometry x="680" y="1064" width="140" height="80" as="geometry" />
        </mxCell>
        <mxCell id="veDKGBILxuSOt_c6IYAu-5" value="E" style="ellipse;whiteSpace=wrap;html=1;aspect=fixed;fillColor=#e51400;fontColor=#ffffff;strokeColor=#B20000;" parent="WIyWlLk6GJQsqaUBKTNV-1" vertex="1">
          <mxGeometry x="720" y="1284" width="60" height="60" as="geometry" />
        </mxCell>
        <mxCell id="XB72b0_UV2uOKMiOkbT4-24" style="edgeStyle=orthogonalEdgeStyle;rounded=0;orthogonalLoop=1;jettySize=auto;html=1;entryX=0.5;entryY=0;entryDx=0;entryDy=0;" parent="WIyWlLk6GJQsqaUBKTNV-1" source="veDKGBILxuSOt_c6IYAu-7" target="8N_FcMI9_JePkyyZ4MbF-0" edge="1">
          <mxGeometry relative="1" as="geometry">
            <Array as="points">
              <mxPoint x="221" y="730" />
              <mxPoint x="221" y="730" />
            </Array>
          </mxGeometry>
        </mxCell>
        <mxCell id="veDKGBILxuSOt_c6IYAu-7" value="MM" style="ellipse;whiteSpace=wrap;html=1;aspect=fixed;fillColor=#fa6800;fontColor=#000000;strokeColor=#C73500;" parent="WIyWlLk6GJQsqaUBKTNV-1" vertex="1">
          <mxGeometry x="190" y="640" width="60" height="60" as="geometry" />
        </mxCell>
        <mxCell id="veDKGBILxuSOt_c6IYAu-10" value="VV" style="ellipse;whiteSpace=wrap;html=1;aspect=fixed;fillColor=#fa6800;fontColor=#000000;strokeColor=#C73500;" parent="WIyWlLk6GJQsqaUBKTNV-1" vertex="1">
          <mxGeometry x="110" y="1110.5" width="60" height="60" as="geometry" />
        </mxCell>
        <mxCell id="veDKGBILxuSOt_c6IYAu-11" value="TT" style="ellipse;whiteSpace=wrap;html=1;aspect=fixed;fillColor=#fa6800;fontColor=#000000;strokeColor=#C73500;" parent="WIyWlLk6GJQsqaUBKTNV-1" vertex="1">
          <mxGeometry x="870" y="1074" width="60" height="60" as="geometry" />
        </mxCell>
        <mxCell id="veDKGBILxuSOt_c6IYAu-16" style="edgeStyle=orthogonalEdgeStyle;rounded=0;orthogonalLoop=1;jettySize=auto;html=1;entryX=0.5;entryY=0;entryDx=0;entryDy=0;" parent="WIyWlLk6GJQsqaUBKTNV-1" source="veDKGBILxuSOt_c6IYAu-15" target="8N_FcMI9_JePkyyZ4MbF-2" edge="1">
          <mxGeometry relative="1" as="geometry" />
        </mxCell>
        <mxCell id="veDKGBILxuSOt_c6IYAu-15" value="VV" style="ellipse;whiteSpace=wrap;html=1;aspect=fixed;fillColor=#fa6800;fontColor=#000000;strokeColor=#C73500;" parent="WIyWlLk6GJQsqaUBKTNV-1" vertex="1">
          <mxGeometry x="920" y="514" width="60" height="60" as="geometry" />
        </mxCell>
        <mxCell id="veDKGBILxuSOt_c6IYAu-22" style="edgeStyle=orthogonalEdgeStyle;rounded=0;orthogonalLoop=1;jettySize=auto;html=1;entryX=0.5;entryY=0;entryDx=0;entryDy=0;" parent="WIyWlLk6GJQsqaUBKTNV-1" source="veDKGBILxuSOt_c6IYAu-19" target="veDKGBILxuSOt_c6IYAu-21" edge="1">
          <mxGeometry relative="1" as="geometry" />
        </mxCell>
        <mxCell id="veDKGBILxuSOt_c6IYAu-19" value="FF" style="ellipse;whiteSpace=wrap;html=1;aspect=fixed;fillColor=#fa6800;fontColor=#000000;strokeColor=#C73500;" parent="WIyWlLk6GJQsqaUBKTNV-1" vertex="1">
          <mxGeometry x="641.25" y="1474" width="60" height="60" as="geometry" />
        </mxCell>
        <mxCell id="veDKGBILxuSOt_c6IYAu-20" value="LV" style="ellipse;whiteSpace=wrap;html=1;aspect=fixed;fillColor=#fa6800;fontColor=#000000;strokeColor=#C73500;" parent="WIyWlLk6GJQsqaUBKTNV-1" vertex="1">
          <mxGeometry x="775.25" y="1569" width="60" height="60" as="geometry" />
        </mxCell>
        <mxCell id="veDKGBILxuSOt_c6IYAu-29" style="edgeStyle=orthogonalEdgeStyle;rounded=0;orthogonalLoop=1;jettySize=auto;html=1;exitX=0.5;exitY=1;exitDx=0;exitDy=0;entryX=0.5;entryY=0;entryDx=0;entryDy=0;" parent="WIyWlLk6GJQsqaUBKTNV-1" source="veDKGBILxuSOt_c6IYAu-21" target="veDKGBILxuSOt_c6IYAu-27" edge="1">
          <mxGeometry relative="1" as="geometry" />
        </mxCell>
        <mxCell id="veDKGBILxuSOt_c6IYAu-33" style="edgeStyle=orthogonalEdgeStyle;rounded=0;orthogonalLoop=1;jettySize=auto;html=1;exitX=1;exitY=0.5;exitDx=0;exitDy=0;entryX=0;entryY=0.5;entryDx=0;entryDy=0;" parent="WIyWlLk6GJQsqaUBKTNV-1" source="veDKGBILxuSOt_c6IYAu-21" target="veDKGBILxuSOt_c6IYAu-20" edge="1">
          <mxGeometry relative="1" as="geometry" />
        </mxCell>
        <mxCell id="veDKGBILxuSOt_c6IYAu-21" value="MoveNext()" style="rhombus;whiteSpace=wrap;html=1;" parent="WIyWlLk6GJQsqaUBKTNV-1" vertex="1">
          <mxGeometry x="601.25" y="1564" width="140" height="70" as="geometry" />
        </mxCell>
        <mxCell id="XB72b0_UV2uOKMiOkbT4-37" style="edgeStyle=orthogonalEdgeStyle;rounded=0;orthogonalLoop=1;jettySize=auto;html=1;entryX=0.5;entryY=0;entryDx=0;entryDy=0;" parent="WIyWlLk6GJQsqaUBKTNV-1" source="veDKGBILxuSOt_c6IYAu-27" target="XB72b0_UV2uOKMiOkbT4-36" edge="1">
          <mxGeometry relative="1" as="geometry" />
        </mxCell>
        <mxCell id="veDKGBILxuSOt_c6IYAu-27" value="Volume.Ping()" style="rounded=0;whiteSpace=wrap;html=1;" parent="WIyWlLk6GJQsqaUBKTNV-1" vertex="1">
          <mxGeometry x="590" y="1674" width="162.5" height="60" as="geometry" />
        </mxCell>
        <mxCell id="XB72b0_UV2uOKMiOkbT4-41" style="edgeStyle=orthogonalEdgeStyle;rounded=0;orthogonalLoop=1;jettySize=auto;html=1;entryX=0.5;entryY=0;entryDx=0;entryDy=0;" parent="WIyWlLk6GJQsqaUBKTNV-1" source="veDKGBILxuSOt_c6IYAu-34" target="8N_FcMI9_JePkyyZ4MbF-66" edge="1">
          <mxGeometry relative="1" as="geometry" />
        </mxCell>
        <mxCell id="veDKGBILxuSOt_c6IYAu-34" value="LV" style="ellipse;whiteSpace=wrap;html=1;aspect=fixed;fillColor=#fa6800;fontColor=#000000;strokeColor=#C73500;" parent="WIyWlLk6GJQsqaUBKTNV-1" vertex="1">
          <mxGeometry x="950" y="1474" width="60" height="60" as="geometry" />
        </mxCell>
        <mxCell id="veDKGBILxuSOt_c6IYAu-38" style="edgeStyle=orthogonalEdgeStyle;rounded=0;orthogonalLoop=1;jettySize=auto;html=1;entryX=0.5;entryY=0;entryDx=0;entryDy=0;" parent="WIyWlLk6GJQsqaUBKTNV-1" source="veDKGBILxuSOt_c6IYAu-36" target="veDKGBILxuSOt_c6IYAu-5" edge="1">
          <mxGeometry relative="1" as="geometry" />
        </mxCell>
        <mxCell id="XB72b0_UV2uOKMiOkbT4-30" style="edgeStyle=orthogonalEdgeStyle;rounded=0;orthogonalLoop=1;jettySize=auto;html=1;entryX=0;entryY=0.5;entryDx=0;entryDy=0;" parent="WIyWlLk6GJQsqaUBKTNV-1" source="veDKGBILxuSOt_c6IYAu-36" target="XB72b0_UV2uOKMiOkbT4-29" edge="1">
          <mxGeometry relative="1" as="geometry" />
        </mxCell>
        <mxCell id="veDKGBILxuSOt_c6IYAu-36" value="hybrid" style="rhombus;whiteSpace=wrap;html=1;" parent="WIyWlLk6GJQsqaUBKTNV-1" vertex="1">
          <mxGeometry x="680" y="1174" width="140" height="80" as="geometry" />
        </mxCell>
        <mxCell id="veDKGBILxuSOt_c6IYAu-39" value="EE" style="ellipse;whiteSpace=wrap;html=1;aspect=fixed;fillColor=#fa6800;fontColor=#000000;strokeColor=#C73500;" parent="WIyWlLk6GJQsqaUBKTNV-1" vertex="1">
          <mxGeometry x="110" y="989.5" width="60" height="60" as="geometry" />
        </mxCell>
        <mxCell id="XB72b0_UV2uOKMiOkbT4-22" style="edgeStyle=orthogonalEdgeStyle;rounded=0;orthogonalLoop=1;jettySize=auto;html=1;entryX=0.5;entryY=0;entryDx=0;entryDy=0;" parent="WIyWlLk6GJQsqaUBKTNV-1" source="XB72b0_UV2uOKMiOkbT4-0" target="8N_FcMI9_JePkyyZ4MbF-44" edge="1">
          <mxGeometry relative="1" as="geometry">
            <Array as="points">
              <mxPoint x="697" y="430" />
              <mxPoint x="697" y="500" />
              <mxPoint x="397" y="500" />
            </Array>
          </mxGeometry>
        </mxCell>
        <mxCell id="XB72b0_UV2uOKMiOkbT4-0" value="YAMLConfigs.Read()" style="rounded=0;whiteSpace=wrap;html=1;" parent="WIyWlLk6GJQsqaUBKTNV-1" vertex="1">
          <mxGeometry x="497" y="400" width="150" height="60" as="geometry" />
        </mxCell>
        <mxCell id="XB72b0_UV2uOKMiOkbT4-10" style="edgeStyle=orthogonalEdgeStyle;rounded=0;orthogonalLoop=1;jettySize=auto;html=1;exitX=0.5;exitY=1;exitDx=0;exitDy=0;entryX=0.5;entryY=0;entryDx=0;entryDy=0;" parent="WIyWlLk6GJQsqaUBKTNV-1" source="XB72b0_UV2uOKMiOkbT4-3" target="XB72b0_UV2uOKMiOkbT4-6" edge="1">
          <mxGeometry relative="1" as="geometry" />
        </mxCell>
        <mxCell id="XB72b0_UV2uOKMiOkbT4-3" value="configFile" style="rhombus;whiteSpace=wrap;html=1;" parent="WIyWlLk6GJQsqaUBKTNV-1" vertex="1">
          <mxGeometry x="337" y="130" width="120" height="60" as="geometry" />
        </mxCell>
        <mxCell id="XB72b0_UV2uOKMiOkbT4-21" style="edgeStyle=orthogonalEdgeStyle;rounded=0;orthogonalLoop=1;jettySize=auto;html=1;entryX=0.5;entryY=0;entryDx=0;entryDy=0;" parent="WIyWlLk6GJQsqaUBKTNV-1" source="XB72b0_UV2uOKMiOkbT4-4" target="8N_FcMI9_JePkyyZ4MbF-44" edge="1">
          <mxGeometry relative="1" as="geometry">
            <Array as="points">
              <mxPoint x="697" y="340" />
              <mxPoint x="697" y="500" />
              <mxPoint x="397" y="500" />
            </Array>
          </mxGeometry>
        </mxCell>
        <mxCell id="XB72b0_UV2uOKMiOkbT4-4" value="JSONConfigs.Read()" style="rounded=0;whiteSpace=wrap;html=1;" parent="WIyWlLk6GJQsqaUBKTNV-1" vertex="1">
          <mxGeometry x="497" y="310" width="150" height="60" as="geometry" />
        </mxCell>
        <mxCell id="XB72b0_UV2uOKMiOkbT4-20" style="edgeStyle=orthogonalEdgeStyle;rounded=0;orthogonalLoop=1;jettySize=auto;html=1;entryX=0.5;entryY=0;entryDx=0;entryDy=0;" parent="WIyWlLk6GJQsqaUBKTNV-1" source="XB72b0_UV2uOKMiOkbT4-5" target="8N_FcMI9_JePkyyZ4MbF-44" edge="1">
          <mxGeometry relative="1" as="geometry">
            <Array as="points">
              <mxPoint x="697" y="250" />
              <mxPoint x="697" y="500" />
              <mxPoint x="397" y="500" />
            </Array>
          </mxGeometry>
        </mxCell>
        <mxCell id="XB72b0_UV2uOKMiOkbT4-23" style="edgeStyle=orthogonalEdgeStyle;rounded=0;orthogonalLoop=1;jettySize=auto;html=1;entryX=0.5;entryY=0;entryDx=0;entryDy=0;" parent="WIyWlLk6GJQsqaUBKTNV-1" source="XB72b0_UV2uOKMiOkbT4-5" target="XB72b0_UV2uOKMiOkbT4-9" edge="1">
          <mxGeometry relative="1" as="geometry" />
        </mxCell>
        <mxCell id="XB72b0_UV2uOKMiOkbT4-5" value="DotENVConfigs.Read()" style="rounded=0;whiteSpace=wrap;html=1;" parent="WIyWlLk6GJQsqaUBKTNV-1" vertex="1">
          <mxGeometry x="497" y="220" width="150" height="60" as="geometry" />
        </mxCell>
        <mxCell id="XB72b0_UV2uOKMiOkbT4-11" style="edgeStyle=orthogonalEdgeStyle;rounded=0;orthogonalLoop=1;jettySize=auto;html=1;" parent="WIyWlLk6GJQsqaUBKTNV-1" source="XB72b0_UV2uOKMiOkbT4-6" target="XB72b0_UV2uOKMiOkbT4-7" edge="1">
          <mxGeometry relative="1" as="geometry" />
        </mxCell>
        <mxCell id="XB72b0_UV2uOKMiOkbT4-17" style="edgeStyle=orthogonalEdgeStyle;rounded=0;orthogonalLoop=1;jettySize=auto;html=1;entryX=0;entryY=0.5;entryDx=0;entryDy=0;" parent="WIyWlLk6GJQsqaUBKTNV-1" source="XB72b0_UV2uOKMiOkbT4-6" target="XB72b0_UV2uOKMiOkbT4-5" edge="1">
          <mxGeometry relative="1" as="geometry" />
        </mxCell>
        <mxCell id="XB72b0_UV2uOKMiOkbT4-6" value="env" style="rhombus;whiteSpace=wrap;html=1;" parent="WIyWlLk6GJQsqaUBKTNV-1" vertex="1">
          <mxGeometry x="337" y="220" width="120" height="60" as="geometry" />
        </mxCell>
        <mxCell id="XB72b0_UV2uOKMiOkbT4-12" style="edgeStyle=orthogonalEdgeStyle;rounded=0;orthogonalLoop=1;jettySize=auto;html=1;" parent="WIyWlLk6GJQsqaUBKTNV-1" source="XB72b0_UV2uOKMiOkbT4-7" target="XB72b0_UV2uOKMiOkbT4-8" edge="1">
          <mxGeometry relative="1" as="geometry" />
        </mxCell>
        <mxCell id="XB72b0_UV2uOKMiOkbT4-18" style="edgeStyle=orthogonalEdgeStyle;rounded=0;orthogonalLoop=1;jettySize=auto;html=1;entryX=0;entryY=0.5;entryDx=0;entryDy=0;" parent="WIyWlLk6GJQsqaUBKTNV-1" source="XB72b0_UV2uOKMiOkbT4-7" target="XB72b0_UV2uOKMiOkbT4-4" edge="1">
          <mxGeometry relative="1" as="geometry" />
        </mxCell>
        <mxCell id="XB72b0_UV2uOKMiOkbT4-7" value="json" style="rhombus;whiteSpace=wrap;html=1;" parent="WIyWlLk6GJQsqaUBKTNV-1" vertex="1">
          <mxGeometry x="337" y="310" width="120" height="60" as="geometry" />
        </mxCell>
        <mxCell id="XB72b0_UV2uOKMiOkbT4-15" style="edgeStyle=orthogonalEdgeStyle;rounded=0;orthogonalLoop=1;jettySize=auto;html=1;entryX=0.5;entryY=0;entryDx=0;entryDy=0;" parent="WIyWlLk6GJQsqaUBKTNV-1" source="XB72b0_UV2uOKMiOkbT4-8" target="8N_FcMI9_JePkyyZ4MbF-44" edge="1">
          <mxGeometry relative="1" as="geometry" />
        </mxCell>
        <mxCell id="XB72b0_UV2uOKMiOkbT4-19" style="edgeStyle=orthogonalEdgeStyle;rounded=0;orthogonalLoop=1;jettySize=auto;html=1;entryX=0;entryY=0.5;entryDx=0;entryDy=0;" parent="WIyWlLk6GJQsqaUBKTNV-1" source="XB72b0_UV2uOKMiOkbT4-8" target="XB72b0_UV2uOKMiOkbT4-0" edge="1">
          <mxGeometry relative="1" as="geometry" />
        </mxCell>
        <mxCell id="XB72b0_UV2uOKMiOkbT4-8" value="yaml" style="rhombus;whiteSpace=wrap;html=1;" parent="WIyWlLk6GJQsqaUBKTNV-1" vertex="1">
          <mxGeometry x="337" y="400" width="120" height="60" as="geometry" />
        </mxCell>
        <mxCell id="XB72b0_UV2uOKMiOkbT4-9" value="E" style="ellipse;whiteSpace=wrap;html=1;aspect=fixed;fillColor=#e51400;fontColor=#ffffff;strokeColor=#B20000;" parent="WIyWlLk6GJQsqaUBKTNV-1" vertex="1">
          <mxGeometry x="667" y="540" width="60" height="60" as="geometry" />
        </mxCell>
        <mxCell id="XB72b0_UV2uOKMiOkbT4-33" style="edgeStyle=orthogonalEdgeStyle;rounded=0;orthogonalLoop=1;jettySize=auto;html=1;entryX=0.5;entryY=0;entryDx=0;entryDy=0;" parent="WIyWlLk6GJQsqaUBKTNV-1" source="XB72b0_UV2uOKMiOkbT4-26" target="XB72b0_UV2uOKMiOkbT4-32" edge="1">
          <mxGeometry relative="1" as="geometry" />
        </mxCell>
        <mxCell id="XB72b0_UV2uOKMiOkbT4-26" value="mode" style="rhombus;whiteSpace=wrap;html=1;" parent="WIyWlLk6GJQsqaUBKTNV-1" vertex="1">
          <mxGeometry x="-70" y="860" width="140" height="80" as="geometry" />
        </mxCell>
        <mxCell id="XB72b0_UV2uOKMiOkbT4-27" value="MM" style="ellipse;whiteSpace=wrap;html=1;aspect=fixed;fillColor=#fa6800;fontColor=#000000;strokeColor=#C73500;" parent="WIyWlLk6GJQsqaUBKTNV-1" vertex="1">
          <mxGeometry x="870" y="964" width="60" height="60" as="geometry" />
        </mxCell>
        <mxCell id="XB72b0_UV2uOKMiOkbT4-29" value="MM" style="ellipse;whiteSpace=wrap;html=1;aspect=fixed;fillColor=#fa6800;fontColor=#000000;strokeColor=#C73500;" parent="WIyWlLk6GJQsqaUBKTNV-1" vertex="1">
          <mxGeometry x="870" y="1184" width="60" height="60" as="geometry" />
        </mxCell>
        <mxCell id="XB72b0_UV2uOKMiOkbT4-39" style="edgeStyle=orthogonalEdgeStyle;rounded=0;orthogonalLoop=1;jettySize=auto;html=1;entryX=0;entryY=0.5;entryDx=0;entryDy=0;" parent="WIyWlLk6GJQsqaUBKTNV-1" source="XB72b0_UV2uOKMiOkbT4-31" target="veDKGBILxuSOt_c6IYAu-10" edge="1">
          <mxGeometry relative="1" as="geometry" />
        </mxCell>
        <mxCell id="XB72b0_UV2uOKMiOkbT4-31" value="cluster" style="rhombus;whiteSpace=wrap;html=1;" parent="WIyWlLk6GJQsqaUBKTNV-1" vertex="1">
          <mxGeometry x="-70" y="1100.5" width="140" height="80" as="geometry" />
        </mxCell>
        <mxCell id="XB72b0_UV2uOKMiOkbT4-34" style="edgeStyle=orthogonalEdgeStyle;rounded=0;orthogonalLoop=1;jettySize=auto;html=1;entryX=0.5;entryY=0;entryDx=0;entryDy=0;" parent="WIyWlLk6GJQsqaUBKTNV-1" source="XB72b0_UV2uOKMiOkbT4-32" target="XB72b0_UV2uOKMiOkbT4-31" edge="1">
          <mxGeometry relative="1" as="geometry" />
        </mxCell>
        <mxCell id="XB72b0_UV2uOKMiOkbT4-40" style="edgeStyle=orthogonalEdgeStyle;rounded=0;orthogonalLoop=1;jettySize=auto;html=1;exitX=1;exitY=0.5;exitDx=0;exitDy=0;entryX=0;entryY=0.5;entryDx=0;entryDy=0;" parent="WIyWlLk6GJQsqaUBKTNV-1" source="XB72b0_UV2uOKMiOkbT4-32" target="veDKGBILxuSOt_c6IYAu-39" edge="1">
          <mxGeometry relative="1" as="geometry" />
        </mxCell>
        <mxCell id="XB72b0_UV2uOKMiOkbT4-32" value="hybrid" style="rhombus;whiteSpace=wrap;html=1;" parent="WIyWlLk6GJQsqaUBKTNV-1" vertex="1">
          <mxGeometry x="-70" y="979.5" width="140" height="80" as="geometry" />
        </mxCell>
        <mxCell id="XB72b0_UV2uOKMiOkbT4-38" style="edgeStyle=orthogonalEdgeStyle;rounded=0;orthogonalLoop=1;jettySize=auto;html=1;entryX=0;entryY=0.5;entryDx=0;entryDy=0;" parent="WIyWlLk6GJQsqaUBKTNV-1" source="XB72b0_UV2uOKMiOkbT4-36" target="veDKGBILxuSOt_c6IYAu-19" edge="1">
          <mxGeometry relative="1" as="geometry">
            <Array as="points">
              <mxPoint x="671" y="1864" />
              <mxPoint x="550" y="1864" />
              <mxPoint x="550" y="1504" />
            </Array>
          </mxGeometry>
        </mxCell>
        <mxCell id="XB72b0_UV2uOKMiOkbT4-36" value="VolumeList.SetState()" style="rounded=0;whiteSpace=wrap;html=1;" parent="WIyWlLk6GJQsqaUBKTNV-1" vertex="1">
          <mxGeometry x="590" y="1774" width="162.5" height="60" as="geometry" />
        </mxCell>
        <mxCell id="XB72b0_UV2uOKMiOkbT4-90" style="edgeStyle=orthogonalEdgeStyle;rounded=0;orthogonalLoop=1;jettySize=auto;html=1;entryX=0.5;entryY=0;entryDx=0;entryDy=0;" parent="WIyWlLk6GJQsqaUBKTNV-1" source="XB72b0_UV2uOKMiOkbT4-42" target="XB72b0_UV2uOKMiOkbT4-89" edge="1">
          <mxGeometry relative="1" as="geometry" />
        </mxCell>
        <mxCell id="XB72b0_UV2uOKMiOkbT4-42" value="CoreApi.Read()" style="rounded=0;whiteSpace=wrap;html=1;" parent="WIyWlLk6GJQsqaUBKTNV-1" vertex="1">
          <mxGeometry x="1440" y="338" width="180" height="60" as="geometry" />
        </mxCell>
        <mxCell id="XB72b0_UV2uOKMiOkbT4-126" style="edgeStyle=orthogonalEdgeStyle;rounded=0;orthogonalLoop=1;jettySize=auto;html=1;entryX=0.5;entryY=0;entryDx=0;entryDy=0;exitX=0.5;exitY=1;exitDx=0;exitDy=0;" parent="WIyWlLk6GJQsqaUBKTNV-1" source="XB72b0_UV2uOKMiOkbT4-44" target="XB72b0_UV2uOKMiOkbT4-113" edge="1">
          <mxGeometry relative="1" as="geometry" />
        </mxCell>
        <mxCell id="XB72b0_UV2uOKMiOkbT4-44" value="CoreApi.WriteCopy()" style="rounded=0;whiteSpace=wrap;html=1;" parent="WIyWlLk6GJQsqaUBKTNV-1" vertex="1">
          <mxGeometry x="2155" y="414" width="170" height="60" as="geometry" />
        </mxCell>
        <mxCell id="XB72b0_UV2uOKMiOkbT4-52" style="edgeStyle=orthogonalEdgeStyle;rounded=0;orthogonalLoop=1;jettySize=auto;html=1;entryX=0.5;entryY=0;entryDx=0;entryDy=0;" parent="WIyWlLk6GJQsqaUBKTNV-1" source="XB72b0_UV2uOKMiOkbT4-48" target="XB72b0_UV2uOKMiOkbT4-51" edge="1">
          <mxGeometry relative="1" as="geometry" />
        </mxCell>
        <mxCell id="XB72b0_UV2uOKMiOkbT4-48" value="Args.GetValue(&quot;--volume&quot;)" style="rounded=0;whiteSpace=wrap;html=1;" parent="WIyWlLk6GJQsqaUBKTNV-1" vertex="1">
          <mxGeometry x="-559.9999999999999" y="1084" width="170" height="60" as="geometry" />
        </mxCell>
        <mxCell id="XB72b0_UV2uOKMiOkbT4-50" style="edgeStyle=orthogonalEdgeStyle;rounded=0;orthogonalLoop=1;jettySize=auto;html=1;entryX=0.5;entryY=0;entryDx=0;entryDy=0;" parent="WIyWlLk6GJQsqaUBKTNV-1" source="XB72b0_UV2uOKMiOkbT4-49" target="XB72b0_UV2uOKMiOkbT4-48" edge="1">
          <mxGeometry relative="1" as="geometry" />
        </mxCell>
        <mxCell id="XB72b0_UV2uOKMiOkbT4-49" value="WE" style="ellipse;whiteSpace=wrap;html=1;aspect=fixed;fillColor=#fa6800;fontColor=#000000;strokeColor=#C73500;" parent="WIyWlLk6GJQsqaUBKTNV-1" vertex="1">
          <mxGeometry x="-504.9999999999999" y="984" width="60" height="60" as="geometry" />
        </mxCell>
        <mxCell id="XB72b0_UV2uOKMiOkbT4-60" style="edgeStyle=orthogonalEdgeStyle;rounded=0;orthogonalLoop=1;jettySize=auto;html=1;entryX=0;entryY=0.5;entryDx=0;entryDy=0;" parent="WIyWlLk6GJQsqaUBKTNV-1" source="XB72b0_UV2uOKMiOkbT4-51" target="XB72b0_UV2uOKMiOkbT4-59" edge="1">
          <mxGeometry relative="1" as="geometry" />
        </mxCell>
        <mxCell id="XB72b0_UV2uOKMiOkbT4-168" style="edgeStyle=orthogonalEdgeStyle;rounded=0;orthogonalLoop=1;jettySize=auto;html=1;entryX=0.5;entryY=0;entryDx=0;entryDy=0;" parent="WIyWlLk6GJQsqaUBKTNV-1" source="XB72b0_UV2uOKMiOkbT4-51" target="XB72b0_UV2uOKMiOkbT4-166" edge="1">
          <mxGeometry relative="1" as="geometry" />
        </mxCell>
        <mxCell id="XB72b0_UV2uOKMiOkbT4-51" value="volumeList" style="rhombus;whiteSpace=wrap;html=1;" parent="WIyWlLk6GJQsqaUBKTNV-1" vertex="1">
          <mxGeometry x="-559.9999999999999" y="1184" width="170" height="60" as="geometry" />
        </mxCell>
        <mxCell id="XB72b0_UV2uOKMiOkbT4-181" style="edgeStyle=orthogonalEdgeStyle;rounded=0;orthogonalLoop=1;jettySize=auto;html=1;entryX=0.5;entryY=0;entryDx=0;entryDy=0;" parent="WIyWlLk6GJQsqaUBKTNV-1" source="XB72b0_UV2uOKMiOkbT4-53" target="XB72b0_UV2uOKMiOkbT4-158" edge="1">
          <mxGeometry relative="1" as="geometry" />
        </mxCell>
        <mxCell id="XB72b0_UV2uOKMiOkbT4-53" value="Envs.GetValue(&quot;VOLUME&quot;)" style="rounded=0;whiteSpace=wrap;html=1;" parent="WIyWlLk6GJQsqaUBKTNV-1" vertex="1">
          <mxGeometry x="276.2500000000001" y="1594" width="170" height="60" as="geometry" />
        </mxCell>
        <mxCell id="XB72b0_UV2uOKMiOkbT4-180" style="edgeStyle=orthogonalEdgeStyle;rounded=0;orthogonalLoop=1;jettySize=auto;html=1;entryX=0.5;entryY=0;entryDx=0;entryDy=0;" parent="WIyWlLk6GJQsqaUBKTNV-1" source="XB72b0_UV2uOKMiOkbT4-57" target="XB72b0_UV2uOKMiOkbT4-162" edge="1">
          <mxGeometry relative="1" as="geometry" />
        </mxCell>
        <mxCell id="XB72b0_UV2uOKMiOkbT4-57" value="JSON.GetValue(&quot;volume&quot;)" style="rounded=0;whiteSpace=wrap;html=1;" parent="WIyWlLk6GJQsqaUBKTNV-1" vertex="1">
          <mxGeometry x="80.00000000000011" y="1594" width="170" height="60" as="geometry" />
        </mxCell>
        <mxCell id="XB72b0_UV2uOKMiOkbT4-59" value="FF" style="ellipse;whiteSpace=wrap;html=1;aspect=fixed;fillColor=#fa6800;fontColor=#000000;strokeColor=#C73500;" parent="WIyWlLk6GJQsqaUBKTNV-1" vertex="1">
          <mxGeometry x="-344.9999999999999" y="1184" width="60" height="60" as="geometry" />
        </mxCell>
        <mxCell id="XB72b0_UV2uOKMiOkbT4-61" value="WE" style="ellipse;whiteSpace=wrap;html=1;aspect=fixed;fillColor=#fa6800;fontColor=#000000;strokeColor=#C73500;" parent="WIyWlLk6GJQsqaUBKTNV-1" vertex="1">
          <mxGeometry x="920" y="694" width="60" height="60" as="geometry" />
        </mxCell>
        <mxCell id="XB72b0_UV2uOKMiOkbT4-179" style="edgeStyle=orthogonalEdgeStyle;rounded=0;orthogonalLoop=1;jettySize=auto;html=1;entryX=0.5;entryY=0;entryDx=0;entryDy=0;" parent="WIyWlLk6GJQsqaUBKTNV-1" source="XB72b0_UV2uOKMiOkbT4-62" target="XB72b0_UV2uOKMiOkbT4-167" edge="1">
          <mxGeometry relative="1" as="geometry" />
        </mxCell>
        <mxCell id="XB72b0_UV2uOKMiOkbT4-62" value="YAML.GetValue(&quot;volume&quot;)" style="rounded=0;whiteSpace=wrap;html=1;" parent="WIyWlLk6GJQsqaUBKTNV-1" vertex="1">
          <mxGeometry x="-114.99999999999989" y="1594" width="170" height="60" as="geometry" />
        </mxCell>
        <mxCell id="XB72b0_UV2uOKMiOkbT4-128" style="edgeStyle=orthogonalEdgeStyle;rounded=0;orthogonalLoop=1;jettySize=auto;html=1;entryX=0;entryY=0.5;entryDx=0;entryDy=0;" parent="WIyWlLk6GJQsqaUBKTNV-1" source="XB72b0_UV2uOKMiOkbT4-64" target="XB72b0_UV2uOKMiOkbT4-127" edge="1">
          <mxGeometry relative="1" as="geometry" />
        </mxCell>
        <mxCell id="XB72b0_UV2uOKMiOkbT4-64" value="operation" style="rhombus;whiteSpace=wrap;html=1;" parent="WIyWlLk6GJQsqaUBKTNV-1" vertex="1">
          <mxGeometry x="910" y="1826" width="140" height="70" as="geometry" />
        </mxCell>
        <mxCell id="XB72b0_UV2uOKMiOkbT4-71" style="edgeStyle=orthogonalEdgeStyle;rounded=0;orthogonalLoop=1;jettySize=auto;html=1;entryX=0.5;entryY=0;entryDx=0;entryDy=0;" parent="WIyWlLk6GJQsqaUBKTNV-1" source="XB72b0_UV2uOKMiOkbT4-66" target="XB72b0_UV2uOKMiOkbT4-67" edge="1">
          <mxGeometry relative="1" as="geometry" />
        </mxCell>
        <mxCell id="XB72b0_UV2uOKMiOkbT4-85" style="edgeStyle=orthogonalEdgeStyle;rounded=0;orthogonalLoop=1;jettySize=auto;html=1;entryX=0;entryY=0.5;entryDx=0;entryDy=0;" parent="WIyWlLk6GJQsqaUBKTNV-1" source="XB72b0_UV2uOKMiOkbT4-66" target="XB72b0_UV2uOKMiOkbT4-83" edge="1">
          <mxGeometry relative="1" as="geometry" />
        </mxCell>
        <mxCell id="XB72b0_UV2uOKMiOkbT4-66" value="read" style="rhombus;whiteSpace=wrap;html=1;" parent="WIyWlLk6GJQsqaUBKTNV-1" vertex="1">
          <mxGeometry x="1320" y="1588" width="120" height="60.5" as="geometry" />
        </mxCell>
        <mxCell id="XB72b0_UV2uOKMiOkbT4-117" style="edgeStyle=orthogonalEdgeStyle;rounded=0;orthogonalLoop=1;jettySize=auto;html=1;entryX=0;entryY=0.5;entryDx=0;entryDy=0;" parent="WIyWlLk6GJQsqaUBKTNV-1" source="XB72b0_UV2uOKMiOkbT4-67" target="XB72b0_UV2uOKMiOkbT4-94" edge="1">
          <mxGeometry relative="1" as="geometry" />
        </mxCell>
        <mxCell id="XB72b0_UV2uOKMiOkbT4-147" style="edgeStyle=orthogonalEdgeStyle;rounded=0;orthogonalLoop=1;jettySize=auto;html=1;entryX=0.5;entryY=0;entryDx=0;entryDy=0;" parent="WIyWlLk6GJQsqaUBKTNV-1" source="XB72b0_UV2uOKMiOkbT4-67" target="XB72b0_UV2uOKMiOkbT4-69" edge="1">
          <mxGeometry relative="1" as="geometry" />
        </mxCell>
        <mxCell id="XB72b0_UV2uOKMiOkbT4-67" value="write" style="rhombus;whiteSpace=wrap;html=1;" parent="WIyWlLk6GJQsqaUBKTNV-1" vertex="1">
          <mxGeometry x="1320" y="1671.5" width="120" height="60.5" as="geometry" />
        </mxCell>
        <mxCell id="XB72b0_UV2uOKMiOkbT4-149" style="edgeStyle=orthogonalEdgeStyle;rounded=0;orthogonalLoop=1;jettySize=auto;html=1;entryX=0;entryY=0.5;entryDx=0;entryDy=0;" parent="WIyWlLk6GJQsqaUBKTNV-1" source="XB72b0_UV2uOKMiOkbT4-69" target="XB72b0_UV2uOKMiOkbT4-148" edge="1">
          <mxGeometry relative="1" as="geometry" />
        </mxCell>
        <mxCell id="XB72b0_UV2uOKMiOkbT4-69" value="delete" style="rhombus;whiteSpace=wrap;html=1;" parent="WIyWlLk6GJQsqaUBKTNV-1" vertex="1">
          <mxGeometry x="1320" y="1757.5" width="120" height="60.5" as="geometry" />
        </mxCell>
        <mxCell id="XB72b0_UV2uOKMiOkbT4-82" style="edgeStyle=orthogonalEdgeStyle;rounded=0;orthogonalLoop=1;jettySize=auto;html=1;entryX=0.5;entryY=0;entryDx=0;entryDy=0;" parent="WIyWlLk6GJQsqaUBKTNV-1" source="XB72b0_UV2uOKMiOkbT4-80" target="XB72b0_UV2uOKMiOkbT4-81" edge="1">
          <mxGeometry relative="1" as="geometry" />
        </mxCell>
        <mxCell id="XB72b0_UV2uOKMiOkbT4-80" value="AuthCore.Audit()" style="rounded=0;whiteSpace=wrap;html=1;" parent="WIyWlLk6GJQsqaUBKTNV-1" vertex="1">
          <mxGeometry x="1445" y="143.5" width="170" height="60" as="geometry" />
        </mxCell>
        <mxCell id="XB72b0_UV2uOKMiOkbT4-88" style="edgeStyle=orthogonalEdgeStyle;rounded=0;orthogonalLoop=1;jettySize=auto;html=1;entryX=0.5;entryY=0;entryDx=0;entryDy=0;" parent="WIyWlLk6GJQsqaUBKTNV-1" source="XB72b0_UV2uOKMiOkbT4-81" target="XB72b0_UV2uOKMiOkbT4-42" edge="1">
          <mxGeometry relative="1" as="geometry" />
        </mxCell>
        <mxCell id="XB72b0_UV2uOKMiOkbT4-93" style="edgeStyle=orthogonalEdgeStyle;rounded=0;orthogonalLoop=1;jettySize=auto;html=1;entryX=0;entryY=0.5;entryDx=0;entryDy=0;" parent="WIyWlLk6GJQsqaUBKTNV-1" source="XB72b0_UV2uOKMiOkbT4-81" target="XB72b0_UV2uOKMiOkbT4-92" edge="1">
          <mxGeometry relative="1" as="geometry" />
        </mxCell>
        <mxCell id="XB72b0_UV2uOKMiOkbT4-81" value="result" style="rhombus;whiteSpace=wrap;html=1;" parent="WIyWlLk6GJQsqaUBKTNV-1" vertex="1">
          <mxGeometry x="1443.75" y="237.5" width="172.5" height="60.5" as="geometry" />
        </mxCell>
        <mxCell id="XB72b0_UV2uOKMiOkbT4-83" value="NM" style="ellipse;whiteSpace=wrap;html=1;aspect=fixed;fillColor=#647687;strokeColor=#314354;fontColor=#ffffff;" parent="WIyWlLk6GJQsqaUBKTNV-1" vertex="1">
          <mxGeometry x="1480" y="1588.5" width="60" height="60" as="geometry" />
        </mxCell>
        <mxCell id="XB72b0_UV2uOKMiOkbT4-87" style="edgeStyle=orthogonalEdgeStyle;rounded=0;orthogonalLoop=1;jettySize=auto;html=1;entryX=0.5;entryY=0;entryDx=0;entryDy=0;" parent="WIyWlLk6GJQsqaUBKTNV-1" source="XB72b0_UV2uOKMiOkbT4-86" target="XB72b0_UV2uOKMiOkbT4-80" edge="1">
          <mxGeometry relative="1" as="geometry" />
        </mxCell>
        <mxCell id="XB72b0_UV2uOKMiOkbT4-86" value="NM" style="ellipse;whiteSpace=wrap;html=1;aspect=fixed;fillColor=#647687;strokeColor=#314354;fontColor=#ffffff;" parent="WIyWlLk6GJQsqaUBKTNV-1" vertex="1">
          <mxGeometry x="1500" y="48" width="60" height="60" as="geometry" />
        </mxCell>
        <mxCell id="XB72b0_UV2uOKMiOkbT4-153" style="edgeStyle=orthogonalEdgeStyle;rounded=0;orthogonalLoop=1;jettySize=auto;html=1;entryX=0.5;entryY=0;entryDx=0;entryDy=0;" parent="WIyWlLk6GJQsqaUBKTNV-1" source="XB72b0_UV2uOKMiOkbT4-89" target="XB72b0_UV2uOKMiOkbT4-152" edge="1">
          <mxGeometry relative="1" as="geometry" />
        </mxCell>
        <mxCell id="XB72b0_UV2uOKMiOkbT4-89" value="Ok()" style="rounded=0;whiteSpace=wrap;html=1;fillColor=#6d8764;fontColor=#ffffff;strokeColor=#3A5431;" parent="WIyWlLk6GJQsqaUBKTNV-1" vertex="1">
          <mxGeometry x="1440" y="438" width="180" height="60" as="geometry" />
        </mxCell>
        <mxCell id="XB72b0_UV2uOKMiOkbT4-92" value="AccessDenied()" style="rounded=0;whiteSpace=wrap;html=1;fillColor=#e51400;fontColor=#ffffff;strokeColor=#B20000;" parent="WIyWlLk6GJQsqaUBKTNV-1" vertex="1">
          <mxGeometry x="1660" y="237.5" width="120" height="60" as="geometry" />
        </mxCell>
        <mxCell id="XB72b0_UV2uOKMiOkbT4-94" value="NL" style="ellipse;whiteSpace=wrap;html=1;aspect=fixed;fillColor=#647687;strokeColor=#314354;fontColor=#ffffff;" parent="WIyWlLk6GJQsqaUBKTNV-1" vertex="1">
          <mxGeometry x="1480" y="1671.5" width="60" height="60" as="geometry" />
        </mxCell>
        <mxCell id="XB72b0_UV2uOKMiOkbT4-95" value="NL" style="ellipse;whiteSpace=wrap;html=1;aspect=fixed;fillColor=#647687;strokeColor=#314354;fontColor=#ffffff;" parent="WIyWlLk6GJQsqaUBKTNV-1" vertex="1">
          <mxGeometry x="2026.25" y="48" width="60" height="60" as="geometry" />
        </mxCell>
        <mxCell id="XB72b0_UV2uOKMiOkbT4-125" style="edgeStyle=orthogonalEdgeStyle;rounded=0;orthogonalLoop=1;jettySize=auto;html=1;entryX=0.5;entryY=0;entryDx=0;entryDy=0;" parent="WIyWlLk6GJQsqaUBKTNV-1" source="XB72b0_UV2uOKMiOkbT4-106" target="XB72b0_UV2uOKMiOkbT4-113" edge="1">
          <mxGeometry relative="1" as="geometry">
            <Array as="points">
              <mxPoint x="1870" y="504" />
              <mxPoint x="2056" y="504" />
            </Array>
          </mxGeometry>
        </mxCell>
        <mxCell id="XB72b0_UV2uOKMiOkbT4-106" value="CoreApi.Write()" style="rounded=0;whiteSpace=wrap;html=1;" parent="WIyWlLk6GJQsqaUBKTNV-1" vertex="1">
          <mxGeometry x="1780" y="414" width="180" height="60" as="geometry" />
        </mxCell>
        <mxCell id="XB72b0_UV2uOKMiOkbT4-107" style="edgeStyle=orthogonalEdgeStyle;rounded=0;orthogonalLoop=1;jettySize=auto;html=1;entryX=0.5;entryY=0;entryDx=0;entryDy=0;" parent="WIyWlLk6GJQsqaUBKTNV-1" source="XB72b0_UV2uOKMiOkbT4-108" target="XB72b0_UV2uOKMiOkbT4-111" edge="1">
          <mxGeometry relative="1" as="geometry" />
        </mxCell>
        <mxCell id="XB72b0_UV2uOKMiOkbT4-108" value="AuthCore.Audit()" style="rounded=0;whiteSpace=wrap;html=1;" parent="WIyWlLk6GJQsqaUBKTNV-1" vertex="1">
          <mxGeometry x="1971.25" y="137.5" width="170" height="60" as="geometry" />
        </mxCell>
        <mxCell id="XB72b0_UV2uOKMiOkbT4-118" style="edgeStyle=orthogonalEdgeStyle;rounded=0;orthogonalLoop=1;jettySize=auto;html=1;entryX=0;entryY=0.5;entryDx=0;entryDy=0;" parent="WIyWlLk6GJQsqaUBKTNV-1" source="XB72b0_UV2uOKMiOkbT4-111" target="XB72b0_UV2uOKMiOkbT4-114" edge="1">
          <mxGeometry relative="1" as="geometry" />
        </mxCell>
        <mxCell id="XB72b0_UV2uOKMiOkbT4-120" style="edgeStyle=orthogonalEdgeStyle;rounded=0;orthogonalLoop=1;jettySize=auto;html=1;entryX=0.5;entryY=0;entryDx=0;entryDy=0;" parent="WIyWlLk6GJQsqaUBKTNV-1" source="XB72b0_UV2uOKMiOkbT4-111" target="XB72b0_UV2uOKMiOkbT4-119" edge="1">
          <mxGeometry relative="1" as="geometry" />
        </mxCell>
        <mxCell id="XB72b0_UV2uOKMiOkbT4-111" value="result" style="rhombus;whiteSpace=wrap;html=1;" parent="WIyWlLk6GJQsqaUBKTNV-1" vertex="1">
          <mxGeometry x="1970" y="231.5" width="172.5" height="60.5" as="geometry" />
        </mxCell>
        <mxCell id="XB72b0_UV2uOKMiOkbT4-112" style="edgeStyle=orthogonalEdgeStyle;rounded=0;orthogonalLoop=1;jettySize=auto;html=1;entryX=0.5;entryY=0;entryDx=0;entryDy=0;exitX=0.5;exitY=1;exitDx=0;exitDy=0;" parent="WIyWlLk6GJQsqaUBKTNV-1" source="XB72b0_UV2uOKMiOkbT4-95" target="XB72b0_UV2uOKMiOkbT4-108" edge="1">
          <mxGeometry relative="1" as="geometry">
            <mxPoint x="1830" y="106" as="sourcePoint" />
          </mxGeometry>
        </mxCell>
        <mxCell id="XB72b0_UV2uOKMiOkbT4-155" style="edgeStyle=orthogonalEdgeStyle;rounded=0;orthogonalLoop=1;jettySize=auto;html=1;entryX=0.5;entryY=0;entryDx=0;entryDy=0;" parent="WIyWlLk6GJQsqaUBKTNV-1" source="XB72b0_UV2uOKMiOkbT4-113" target="XB72b0_UV2uOKMiOkbT4-154" edge="1">
          <mxGeometry relative="1" as="geometry" />
        </mxCell>
        <mxCell id="XB72b0_UV2uOKMiOkbT4-113" value="Ok()" style="rounded=0;whiteSpace=wrap;html=1;fillColor=#6d8764;fontColor=#ffffff;strokeColor=#3A5431;" parent="WIyWlLk6GJQsqaUBKTNV-1" vertex="1">
          <mxGeometry x="1966.25" y="534" width="180" height="60" as="geometry" />
        </mxCell>
        <mxCell id="XB72b0_UV2uOKMiOkbT4-114" value="AccessDenied()" style="rounded=0;whiteSpace=wrap;html=1;fillColor=#e51400;fontColor=#ffffff;strokeColor=#B20000;" parent="WIyWlLk6GJQsqaUBKTNV-1" vertex="1">
          <mxGeometry x="2180" y="232" width="120" height="60" as="geometry" />
        </mxCell>
        <mxCell id="XB72b0_UV2uOKMiOkbT4-116" style="edgeStyle=orthogonalEdgeStyle;rounded=0;orthogonalLoop=1;jettySize=auto;html=1;entryX=0.5;entryY=0;entryDx=0;entryDy=0;" parent="WIyWlLk6GJQsqaUBKTNV-1" source="XB72b0_UV2uOKMiOkbT4-115" target="8N_FcMI9_JePkyyZ4MbF-69" edge="1">
          <mxGeometry relative="1" as="geometry" />
        </mxCell>
        <mxCell id="XB72b0_UV2uOKMiOkbT4-115" value="HE" style="ellipse;whiteSpace=wrap;html=1;aspect=fixed;fillColor=#fa6800;fontColor=#000000;strokeColor=#C73500;" parent="WIyWlLk6GJQsqaUBKTNV-1" vertex="1">
          <mxGeometry x="1100" y="1654" width="60" height="60" as="geometry" />
        </mxCell>
        <mxCell id="XB72b0_UV2uOKMiOkbT4-121" style="edgeStyle=orthogonalEdgeStyle;rounded=0;orthogonalLoop=1;jettySize=auto;html=1;entryX=0.5;entryY=0;entryDx=0;entryDy=0;" parent="WIyWlLk6GJQsqaUBKTNV-1" source="XB72b0_UV2uOKMiOkbT4-119" target="XB72b0_UV2uOKMiOkbT4-106" edge="1">
          <mxGeometry relative="1" as="geometry" />
        </mxCell>
        <mxCell id="XB72b0_UV2uOKMiOkbT4-123" style="edgeStyle=orthogonalEdgeStyle;rounded=0;orthogonalLoop=1;jettySize=auto;html=1;entryX=0.5;entryY=0;entryDx=0;entryDy=0;exitX=1;exitY=0.5;exitDx=0;exitDy=0;" parent="WIyWlLk6GJQsqaUBKTNV-1" source="XB72b0_UV2uOKMiOkbT4-119" target="XB72b0_UV2uOKMiOkbT4-44" edge="1">
          <mxGeometry relative="1" as="geometry" />
        </mxCell>
        <mxCell id="XB72b0_UV2uOKMiOkbT4-119" value="asCopy" style="rhombus;whiteSpace=wrap;html=1;" parent="WIyWlLk6GJQsqaUBKTNV-1" vertex="1">
          <mxGeometry x="1970" y="328" width="172.5" height="60.5" as="geometry" />
        </mxCell>
        <mxCell id="XB72b0_UV2uOKMiOkbT4-127" value="ZE" style="ellipse;whiteSpace=wrap;html=1;aspect=fixed;fillColor=#647687;strokeColor=#314354;fontColor=#ffffff;" parent="WIyWlLk6GJQsqaUBKTNV-1" vertex="1">
          <mxGeometry x="1100" y="1831" width="60" height="60" as="geometry" />
        </mxCell>
        <mxCell id="XB72b0_UV2uOKMiOkbT4-130" style="edgeStyle=orthogonalEdgeStyle;rounded=0;orthogonalLoop=1;jettySize=auto;html=1;entryX=0.5;entryY=0;entryDx=0;entryDy=0;" parent="WIyWlLk6GJQsqaUBKTNV-1" source="XB72b0_UV2uOKMiOkbT4-129" target="XB72b0_UV2uOKMiOkbT4-66" edge="1">
          <mxGeometry relative="1" as="geometry" />
        </mxCell>
        <mxCell id="XB72b0_UV2uOKMiOkbT4-129" value="ZE" style="ellipse;whiteSpace=wrap;html=1;aspect=fixed;fillColor=#647687;strokeColor=#314354;fontColor=#ffffff;" parent="WIyWlLk6GJQsqaUBKTNV-1" vertex="1">
          <mxGeometry x="1350" y="1492" width="60" height="60" as="geometry" />
        </mxCell>
        <mxCell id="XB72b0_UV2uOKMiOkbT4-131" style="edgeStyle=orthogonalEdgeStyle;rounded=0;orthogonalLoop=1;jettySize=auto;html=1;entryX=0.5;entryY=0;entryDx=0;entryDy=0;exitX=0.5;exitY=1;exitDx=0;exitDy=0;" parent="WIyWlLk6GJQsqaUBKTNV-1" source="XB72b0_UV2uOKMiOkbT4-132" target="XB72b0_UV2uOKMiOkbT4-142" edge="1">
          <mxGeometry relative="1" as="geometry" />
        </mxCell>
        <mxCell id="XB72b0_UV2uOKMiOkbT4-132" value="CoreApi.MarkAsDeleted()" style="rounded=0;whiteSpace=wrap;html=1;" parent="WIyWlLk6GJQsqaUBKTNV-1" vertex="1">
          <mxGeometry x="2745" y="414" width="170" height="60" as="geometry" />
        </mxCell>
        <mxCell id="XB72b0_UV2uOKMiOkbT4-133" value="NT" style="ellipse;whiteSpace=wrap;html=1;aspect=fixed;fillColor=#647687;strokeColor=#314354;fontColor=#ffffff;" parent="WIyWlLk6GJQsqaUBKTNV-1" vertex="1">
          <mxGeometry x="2616.25" y="48" width="60" height="60" as="geometry" />
        </mxCell>
        <mxCell id="XB72b0_UV2uOKMiOkbT4-134" style="edgeStyle=orthogonalEdgeStyle;rounded=0;orthogonalLoop=1;jettySize=auto;html=1;entryX=0.5;entryY=0;entryDx=0;entryDy=0;" parent="WIyWlLk6GJQsqaUBKTNV-1" source="XB72b0_UV2uOKMiOkbT4-135" target="XB72b0_UV2uOKMiOkbT4-142" edge="1">
          <mxGeometry relative="1" as="geometry">
            <Array as="points">
              <mxPoint x="2460" y="504" />
              <mxPoint x="2646" y="504" />
            </Array>
          </mxGeometry>
        </mxCell>
        <mxCell id="XB72b0_UV2uOKMiOkbT4-135" value="CoreApi.Delete()" style="rounded=0;whiteSpace=wrap;html=1;" parent="WIyWlLk6GJQsqaUBKTNV-1" vertex="1">
          <mxGeometry x="2370" y="414" width="180" height="60" as="geometry" />
        </mxCell>
        <mxCell id="XB72b0_UV2uOKMiOkbT4-136" style="edgeStyle=orthogonalEdgeStyle;rounded=0;orthogonalLoop=1;jettySize=auto;html=1;entryX=0.5;entryY=0;entryDx=0;entryDy=0;" parent="WIyWlLk6GJQsqaUBKTNV-1" source="XB72b0_UV2uOKMiOkbT4-137" target="XB72b0_UV2uOKMiOkbT4-140" edge="1">
          <mxGeometry relative="1" as="geometry" />
        </mxCell>
        <mxCell id="XB72b0_UV2uOKMiOkbT4-137" value="AuthCore.Audit()" style="rounded=0;whiteSpace=wrap;html=1;" parent="WIyWlLk6GJQsqaUBKTNV-1" vertex="1">
          <mxGeometry x="2561.25" y="137.5" width="170" height="60" as="geometry" />
        </mxCell>
        <mxCell id="XB72b0_UV2uOKMiOkbT4-138" style="edgeStyle=orthogonalEdgeStyle;rounded=0;orthogonalLoop=1;jettySize=auto;html=1;entryX=0;entryY=0.5;entryDx=0;entryDy=0;" parent="WIyWlLk6GJQsqaUBKTNV-1" source="XB72b0_UV2uOKMiOkbT4-140" target="XB72b0_UV2uOKMiOkbT4-143" edge="1">
          <mxGeometry relative="1" as="geometry" />
        </mxCell>
        <mxCell id="XB72b0_UV2uOKMiOkbT4-139" style="edgeStyle=orthogonalEdgeStyle;rounded=0;orthogonalLoop=1;jettySize=auto;html=1;entryX=0.5;entryY=0;entryDx=0;entryDy=0;" parent="WIyWlLk6GJQsqaUBKTNV-1" source="XB72b0_UV2uOKMiOkbT4-140" target="XB72b0_UV2uOKMiOkbT4-146" edge="1">
          <mxGeometry relative="1" as="geometry" />
        </mxCell>
        <mxCell id="XB72b0_UV2uOKMiOkbT4-140" value="result" style="rhombus;whiteSpace=wrap;html=1;" parent="WIyWlLk6GJQsqaUBKTNV-1" vertex="1">
          <mxGeometry x="2560" y="231.5" width="172.5" height="60.5" as="geometry" />
        </mxCell>
        <mxCell id="XB72b0_UV2uOKMiOkbT4-141" style="edgeStyle=orthogonalEdgeStyle;rounded=0;orthogonalLoop=1;jettySize=auto;html=1;entryX=0.5;entryY=0;entryDx=0;entryDy=0;exitX=0.5;exitY=1;exitDx=0;exitDy=0;" parent="WIyWlLk6GJQsqaUBKTNV-1" source="XB72b0_UV2uOKMiOkbT4-133" target="XB72b0_UV2uOKMiOkbT4-137" edge="1">
          <mxGeometry relative="1" as="geometry">
            <mxPoint x="2420" y="106" as="sourcePoint" />
          </mxGeometry>
        </mxCell>
        <mxCell id="XB72b0_UV2uOKMiOkbT4-157" style="edgeStyle=orthogonalEdgeStyle;rounded=0;orthogonalLoop=1;jettySize=auto;html=1;entryX=0.5;entryY=0;entryDx=0;entryDy=0;" parent="WIyWlLk6GJQsqaUBKTNV-1" source="XB72b0_UV2uOKMiOkbT4-142" target="XB72b0_UV2uOKMiOkbT4-156" edge="1">
          <mxGeometry relative="1" as="geometry" />
        </mxCell>
        <mxCell id="XB72b0_UV2uOKMiOkbT4-142" value="Ok()" style="rounded=0;whiteSpace=wrap;html=1;fillColor=#6d8764;fontColor=#ffffff;strokeColor=#3A5431;" parent="WIyWlLk6GJQsqaUBKTNV-1" vertex="1">
          <mxGeometry x="2556.25" y="534" width="180" height="60" as="geometry" />
        </mxCell>
        <mxCell id="XB72b0_UV2uOKMiOkbT4-143" value="AccessDenied()" style="rounded=0;whiteSpace=wrap;html=1;fillColor=#e51400;fontColor=#ffffff;strokeColor=#B20000;" parent="WIyWlLk6GJQsqaUBKTNV-1" vertex="1">
          <mxGeometry x="2770" y="232" width="120" height="60" as="geometry" />
        </mxCell>
        <mxCell id="XB72b0_UV2uOKMiOkbT4-144" style="edgeStyle=orthogonalEdgeStyle;rounded=0;orthogonalLoop=1;jettySize=auto;html=1;entryX=0.5;entryY=0;entryDx=0;entryDy=0;" parent="WIyWlLk6GJQsqaUBKTNV-1" source="XB72b0_UV2uOKMiOkbT4-146" target="XB72b0_UV2uOKMiOkbT4-135" edge="1">
          <mxGeometry relative="1" as="geometry" />
        </mxCell>
        <mxCell id="XB72b0_UV2uOKMiOkbT4-145" style="edgeStyle=orthogonalEdgeStyle;rounded=0;orthogonalLoop=1;jettySize=auto;html=1;entryX=0.5;entryY=0;entryDx=0;entryDy=0;exitX=1;exitY=0.5;exitDx=0;exitDy=0;" parent="WIyWlLk6GJQsqaUBKTNV-1" source="XB72b0_UV2uOKMiOkbT4-146" target="XB72b0_UV2uOKMiOkbT4-132" edge="1">
          <mxGeometry relative="1" as="geometry" />
        </mxCell>
        <mxCell id="XB72b0_UV2uOKMiOkbT4-146" value="asCopy" style="rhombus;whiteSpace=wrap;html=1;" parent="WIyWlLk6GJQsqaUBKTNV-1" vertex="1">
          <mxGeometry x="2560" y="328" width="172.5" height="60.5" as="geometry" />
        </mxCell>
        <mxCell id="XB72b0_UV2uOKMiOkbT4-148" value="NT" style="ellipse;whiteSpace=wrap;html=1;aspect=fixed;fillColor=#647687;strokeColor=#314354;fontColor=#ffffff;" parent="WIyWlLk6GJQsqaUBKTNV-1" vertex="1">
          <mxGeometry x="1480" y="1758" width="60" height="60" as="geometry" />
        </mxCell>
        <mxCell id="XB72b0_UV2uOKMiOkbT4-152" value="HE" style="ellipse;whiteSpace=wrap;html=1;aspect=fixed;fillColor=#fa6800;fontColor=#000000;strokeColor=#C73500;" parent="WIyWlLk6GJQsqaUBKTNV-1" vertex="1">
          <mxGeometry x="1500" y="544" width="60" height="60" as="geometry" />
        </mxCell>
        <mxCell id="XB72b0_UV2uOKMiOkbT4-154" value="HE" style="ellipse;whiteSpace=wrap;html=1;aspect=fixed;fillColor=#fa6800;fontColor=#000000;strokeColor=#C73500;" parent="WIyWlLk6GJQsqaUBKTNV-1" vertex="1">
          <mxGeometry x="2026.25" y="634" width="60" height="60" as="geometry" />
        </mxCell>
        <mxCell id="XB72b0_UV2uOKMiOkbT4-156" value="HE" style="ellipse;whiteSpace=wrap;html=1;aspect=fixed;fillColor=#fa6800;fontColor=#000000;strokeColor=#C73500;" parent="WIyWlLk6GJQsqaUBKTNV-1" vertex="1">
          <mxGeometry x="2616.25" y="634" width="60" height="60" as="geometry" />
        </mxCell>
        <mxCell id="XB72b0_UV2uOKMiOkbT4-158" value="FF" style="ellipse;whiteSpace=wrap;html=1;aspect=fixed;fillColor=#fa6800;fontColor=#000000;strokeColor=#C73500;" parent="WIyWlLk6GJQsqaUBKTNV-1" vertex="1">
          <mxGeometry x="331.2500000000001" y="1684" width="60" height="60" as="geometry" />
        </mxCell>
        <mxCell id="XB72b0_UV2uOKMiOkbT4-162" value="FF" style="ellipse;whiteSpace=wrap;html=1;aspect=fixed;fillColor=#fa6800;fontColor=#000000;strokeColor=#C73500;" parent="WIyWlLk6GJQsqaUBKTNV-1" vertex="1">
          <mxGeometry x="135.0000000000001" y="1694" width="60" height="60" as="geometry" />
        </mxCell>
        <mxCell id="XB72b0_UV2uOKMiOkbT4-170" style="edgeStyle=orthogonalEdgeStyle;rounded=0;orthogonalLoop=1;jettySize=auto;html=1;entryX=0.5;entryY=0;entryDx=0;entryDy=0;" parent="WIyWlLk6GJQsqaUBKTNV-1" source="XB72b0_UV2uOKMiOkbT4-166" target="XB72b0_UV2uOKMiOkbT4-169" edge="1">
          <mxGeometry relative="1" as="geometry" />
        </mxCell>
        <mxCell id="XB72b0_UV2uOKMiOkbT4-166" value="Args.GetValue(&quot;--configFile&quot;)" style="rounded=0;whiteSpace=wrap;html=1;" parent="WIyWlLk6GJQsqaUBKTNV-1" vertex="1">
          <mxGeometry x="-559.9999999999999" y="1298" width="170" height="60" as="geometry" />
        </mxCell>
        <mxCell id="XB72b0_UV2uOKMiOkbT4-167" value="FF" style="ellipse;whiteSpace=wrap;html=1;aspect=fixed;fillColor=#fa6800;fontColor=#000000;strokeColor=#C73500;" parent="WIyWlLk6GJQsqaUBKTNV-1" vertex="1">
          <mxGeometry x="-59.999999999999886" y="1694" width="60" height="60" as="geometry" />
        </mxCell>
        <mxCell id="XB72b0_UV2uOKMiOkbT4-174" style="edgeStyle=orthogonalEdgeStyle;rounded=0;orthogonalLoop=1;jettySize=auto;html=1;entryX=0;entryY=0.5;entryDx=0;entryDy=0;" parent="WIyWlLk6GJQsqaUBKTNV-1" source="XB72b0_UV2uOKMiOkbT4-169" target="XB72b0_UV2uOKMiOkbT4-171" edge="1">
          <mxGeometry relative="1" as="geometry" />
        </mxCell>
        <mxCell id="XB72b0_UV2uOKMiOkbT4-175" style="edgeStyle=orthogonalEdgeStyle;rounded=0;orthogonalLoop=1;jettySize=auto;html=1;entryX=0;entryY=0.5;entryDx=0;entryDy=0;" parent="WIyWlLk6GJQsqaUBKTNV-1" source="XB72b0_UV2uOKMiOkbT4-169" target="XB72b0_UV2uOKMiOkbT4-172" edge="1">
          <mxGeometry relative="1" as="geometry" />
        </mxCell>
        <mxCell id="XB72b0_UV2uOKMiOkbT4-176" style="edgeStyle=orthogonalEdgeStyle;rounded=0;orthogonalLoop=1;jettySize=auto;html=1;entryX=0;entryY=0.5;entryDx=0;entryDy=0;" parent="WIyWlLk6GJQsqaUBKTNV-1" source="XB72b0_UV2uOKMiOkbT4-169" target="XB72b0_UV2uOKMiOkbT4-173" edge="1">
          <mxGeometry relative="1" as="geometry" />
        </mxCell>
        <mxCell id="XB72b0_UV2uOKMiOkbT4-169" value="configFileExt" style="rhombus;whiteSpace=wrap;html=1;" parent="WIyWlLk6GJQsqaUBKTNV-1" vertex="1">
          <mxGeometry x="-559.9999999999999" y="1414" width="170" height="60" as="geometry" />
        </mxCell>
        <mxCell id="XB72b0_UV2uOKMiOkbT4-184" style="edgeStyle=orthogonalEdgeStyle;rounded=0;orthogonalLoop=1;jettySize=auto;html=1;entryX=0;entryY=0.5;entryDx=0;entryDy=0;" parent="WIyWlLk6GJQsqaUBKTNV-1" source="XB72b0_UV2uOKMiOkbT4-171" target="XB72b0_UV2uOKMiOkbT4-177" edge="1">
          <mxGeometry relative="1" as="geometry" />
        </mxCell>
        <mxCell id="XB72b0_UV2uOKMiOkbT4-171" value="env" style="rhombus;whiteSpace=wrap;html=1;" parent="WIyWlLk6GJQsqaUBKTNV-1" vertex="1">
          <mxGeometry x="-439.9999999999999" y="1514" width="120" height="60" as="geometry" />
        </mxCell>
        <mxCell id="XB72b0_UV2uOKMiOkbT4-185" style="edgeStyle=orthogonalEdgeStyle;rounded=0;orthogonalLoop=1;jettySize=auto;html=1;entryX=0;entryY=0.5;entryDx=0;entryDy=0;" parent="WIyWlLk6GJQsqaUBKTNV-1" source="XB72b0_UV2uOKMiOkbT4-172" target="XB72b0_UV2uOKMiOkbT4-182" edge="1">
          <mxGeometry relative="1" as="geometry" />
        </mxCell>
        <mxCell id="XB72b0_UV2uOKMiOkbT4-172" value="json" style="rhombus;whiteSpace=wrap;html=1;" parent="WIyWlLk6GJQsqaUBKTNV-1" vertex="1">
          <mxGeometry x="-439.9999999999999" y="1594" width="120" height="60" as="geometry" />
        </mxCell>
        <mxCell id="XB72b0_UV2uOKMiOkbT4-186" style="edgeStyle=orthogonalEdgeStyle;rounded=0;orthogonalLoop=1;jettySize=auto;html=1;entryX=0;entryY=0.5;entryDx=0;entryDy=0;" parent="WIyWlLk6GJQsqaUBKTNV-1" source="XB72b0_UV2uOKMiOkbT4-173" target="XB72b0_UV2uOKMiOkbT4-183" edge="1">
          <mxGeometry relative="1" as="geometry" />
        </mxCell>
        <mxCell id="XB72b0_UV2uOKMiOkbT4-173" value="yaml" style="rhombus;whiteSpace=wrap;html=1;" parent="WIyWlLk6GJQsqaUBKTNV-1" vertex="1">
          <mxGeometry x="-439.9999999999999" y="1674" width="120" height="60" as="geometry" />
        </mxCell>
        <mxCell id="XB72b0_UV2uOKMiOkbT4-177" value="FD" style="ellipse;whiteSpace=wrap;html=1;aspect=fixed;fillColor=#fa6800;fontColor=#000000;strokeColor=#C73500;" parent="WIyWlLk6GJQsqaUBKTNV-1" vertex="1">
          <mxGeometry x="-289.9999999999999" y="1514" width="60" height="60" as="geometry" />
        </mxCell>
        <mxCell id="XB72b0_UV2uOKMiOkbT4-182" value="FL" style="ellipse;whiteSpace=wrap;html=1;aspect=fixed;fillColor=#fa6800;fontColor=#000000;strokeColor=#C73500;" parent="WIyWlLk6GJQsqaUBKTNV-1" vertex="1">
          <mxGeometry x="-289.9999999999999" y="1594" width="60" height="60" as="geometry" />
        </mxCell>
        <mxCell id="XB72b0_UV2uOKMiOkbT4-183" value="FX" style="ellipse;whiteSpace=wrap;html=1;aspect=fixed;fillColor=#fa6800;fontColor=#000000;strokeColor=#C73500;" parent="WIyWlLk6GJQsqaUBKTNV-1" vertex="1">
          <mxGeometry x="-289.9999999999999" y="1674" width="60" height="60" as="geometry" />
        </mxCell>
        <mxCell id="XB72b0_UV2uOKMiOkbT4-188" style="edgeStyle=orthogonalEdgeStyle;rounded=0;orthogonalLoop=1;jettySize=auto;html=1;entryX=0.5;entryY=0;entryDx=0;entryDy=0;" parent="WIyWlLk6GJQsqaUBKTNV-1" source="XB72b0_UV2uOKMiOkbT4-187" target="XB72b0_UV2uOKMiOkbT4-53" edge="1">
          <mxGeometry relative="1" as="geometry" />
        </mxCell>
        <mxCell id="XB72b0_UV2uOKMiOkbT4-187" value="FD" style="ellipse;whiteSpace=wrap;html=1;aspect=fixed;fillColor=#fa6800;fontColor=#000000;strokeColor=#C73500;" parent="WIyWlLk6GJQsqaUBKTNV-1" vertex="1">
          <mxGeometry x="331.2500000000001" y="1504" width="60" height="60" as="geometry" />
        </mxCell>
        <mxCell id="XB72b0_UV2uOKMiOkbT4-190" style="edgeStyle=orthogonalEdgeStyle;rounded=0;orthogonalLoop=1;jettySize=auto;html=1;entryX=0.5;entryY=0;entryDx=0;entryDy=0;" parent="WIyWlLk6GJQsqaUBKTNV-1" source="XB72b0_UV2uOKMiOkbT4-189" target="XB72b0_UV2uOKMiOkbT4-57" edge="1">
          <mxGeometry relative="1" as="geometry" />
        </mxCell>
        <mxCell id="XB72b0_UV2uOKMiOkbT4-189" value="FL" style="ellipse;whiteSpace=wrap;html=1;aspect=fixed;fillColor=#fa6800;fontColor=#000000;strokeColor=#C73500;" parent="WIyWlLk6GJQsqaUBKTNV-1" vertex="1">
          <mxGeometry x="135.0000000000001" y="1504" width="60" height="60" as="geometry" />
        </mxCell>
        <mxCell id="XB72b0_UV2uOKMiOkbT4-192" style="edgeStyle=orthogonalEdgeStyle;rounded=0;orthogonalLoop=1;jettySize=auto;html=1;entryX=0.5;entryY=0;entryDx=0;entryDy=0;" parent="WIyWlLk6GJQsqaUBKTNV-1" source="XB72b0_UV2uOKMiOkbT4-191" target="XB72b0_UV2uOKMiOkbT4-62" edge="1">
          <mxGeometry relative="1" as="geometry" />
        </mxCell>
        <mxCell id="XB72b0_UV2uOKMiOkbT4-191" value="FX" style="ellipse;whiteSpace=wrap;html=1;aspect=fixed;fillColor=#fa6800;fontColor=#000000;strokeColor=#C73500;" parent="WIyWlLk6GJQsqaUBKTNV-1" vertex="1">
          <mxGeometry x="-59.999999999999886" y="1504" width="60" height="60" as="geometry" />
        </mxCell>
      </root>
    </mxGraphModel>
  </diagram>
  <diagram id="P4rYgwucmzNwFidcQotV" name="Страница — 2">
    <mxGraphModel dx="1247" dy="727" grid="1" gridSize="10" guides="1" tooltips="1" connect="1" arrows="1" fold="1" page="1" pageScale="1" pageWidth="827" pageHeight="1169" math="0" shadow="0">
      <root>
        <mxCell id="0" />
        <mxCell id="1" parent="0" />
        <mxCell id="SLk7LaPdF7T7Vt0anTHe-2" value="Cluster (master)" style="swimlane;fillColor=#fa6800;fontColor=#000000;strokeColor=#C73500;" vertex="1" parent="1">
          <mxGeometry x="10" y="360" width="980" height="190" as="geometry" />
        </mxCell>
        <mxCell id="SLk7LaPdF7T7Vt0anTHe-3" value="Server-1 (slave)" style="swimlane;fillColor=#76608a;fontColor=#ffffff;strokeColor=#432D57;" vertex="1" parent="SLk7LaPdF7T7Vt0anTHe-2">
          <mxGeometry x="10" y="30" width="200" height="150" as="geometry" />
        </mxCell>
        <mxCell id="SLk7LaPdF7T7Vt0anTHe-6" value="Volume-0" style="swimlane;fillColor=#6d8764;fontColor=#ffffff;strokeColor=#3A5431;" vertex="1" parent="SLk7LaPdF7T7Vt0anTHe-3">
          <mxGeometry y="30" width="100" height="120" as="geometry" />
        </mxCell>
        <mxCell id="SLk7LaPdF7T7Vt0anTHe-13" value="/mnt/d1/data/" style="text;html=1;align=center;verticalAlign=middle;resizable=0;points=[];autosize=1;strokeColor=none;fillColor=none;" vertex="1" parent="SLk7LaPdF7T7Vt0anTHe-6">
          <mxGeometry x="5" y="58" width="90" height="30" as="geometry" />
        </mxCell>
        <mxCell id="SLk7LaPdF7T7Vt0anTHe-7" value="Volume-1" style="swimlane;fillColor=#6d8764;fontColor=#ffffff;strokeColor=#3A5431;" vertex="1" parent="SLk7LaPdF7T7Vt0anTHe-3">
          <mxGeometry x="100" y="30" width="100" height="120" as="geometry" />
        </mxCell>
        <mxCell id="SLk7LaPdF7T7Vt0anTHe-14" value="/mnt/d0/data" style="text;html=1;align=center;verticalAlign=middle;resizable=0;points=[];autosize=1;strokeColor=none;fillColor=none;" vertex="1" parent="SLk7LaPdF7T7Vt0anTHe-7">
          <mxGeometry x="5" y="58" width="90" height="30" as="geometry" />
        </mxCell>
        <mxCell id="SLk7LaPdF7T7Vt0anTHe-4" value="Server-2 (slave)" style="swimlane;fillColor=#76608a;fontColor=#ffffff;strokeColor=#432D57;" vertex="1" parent="SLk7LaPdF7T7Vt0anTHe-2">
          <mxGeometry x="220" y="30" width="200" height="150" as="geometry" />
        </mxCell>
        <mxCell id="SLk7LaPdF7T7Vt0anTHe-8" value="Volume-0" style="swimlane;fillColor=#6d8764;fontColor=#ffffff;strokeColor=#3A5431;" vertex="1" parent="SLk7LaPdF7T7Vt0anTHe-4">
          <mxGeometry y="30" width="200" height="120" as="geometry" />
        </mxCell>
        <mxCell id="SLk7LaPdF7T7Vt0anTHe-5" value="Server-3 (slave)" style="swimlane;fillColor=#76608a;fontColor=#ffffff;strokeColor=#432D57;" vertex="1" parent="SLk7LaPdF7T7Vt0anTHe-2">
          <mxGeometry x="430" y="30" width="280" height="150" as="geometry" />
        </mxCell>
        <mxCell id="SLk7LaPdF7T7Vt0anTHe-9" value="Volume-0" style="swimlane;fillColor=#6d8764;fontColor=#ffffff;strokeColor=#3A5431;" vertex="1" parent="SLk7LaPdF7T7Vt0anTHe-5">
          <mxGeometry y="30" width="70" height="120" as="geometry" />
        </mxCell>
        <mxCell id="SLk7LaPdF7T7Vt0anTHe-10" value="Volume-1" style="swimlane;fillColor=#6d8764;fontColor=#ffffff;strokeColor=#3A5431;" vertex="1" parent="SLk7LaPdF7T7Vt0anTHe-5">
          <mxGeometry x="70" y="30" width="70" height="120" as="geometry" />
        </mxCell>
        <mxCell id="SLk7LaPdF7T7Vt0anTHe-11" value="Volume-2" style="swimlane;fillColor=#6d8764;fontColor=#ffffff;strokeColor=#3A5431;" vertex="1" parent="SLk7LaPdF7T7Vt0anTHe-5">
          <mxGeometry x="140" y="30" width="70" height="120" as="geometry" />
        </mxCell>
        <mxCell id="SLk7LaPdF7T7Vt0anTHe-12" value="Volume-3" style="swimlane;fillColor=#6d8764;fontColor=#ffffff;strokeColor=#3A5431;" vertex="1" parent="SLk7LaPdF7T7Vt0anTHe-5">
          <mxGeometry x="210" y="30" width="70" height="120" as="geometry" />
        </mxCell>
        <mxCell id="SLk7LaPdF7T7Vt0anTHe-15" value="DB (Postgres)" style="swimlane;fillColor=#e51400;fontColor=#ffffff;strokeColor=#B20000;" vertex="1" parent="SLk7LaPdF7T7Vt0anTHe-2">
          <mxGeometry x="720" y="30" width="120" height="150" as="geometry" />
        </mxCell>
        <mxCell id="SLk7LaPdF7T7Vt0anTHe-20" value="DB (Redis)" style="swimlane;fillColor=#e51400;fontColor=#ffffff;strokeColor=#B20000;" vertex="1" parent="SLk7LaPdF7T7Vt0anTHe-2">
          <mxGeometry x="850" y="30" width="120" height="150" as="geometry" />
        </mxCell>
      </root>
    </mxGraphModel>
  </diagram>
  <diagram id="63AErQBWpw9NTxhF1YQb" name="Страница — 3">
    <mxGraphModel dx="1426" dy="841" grid="1" gridSize="10" guides="1" tooltips="1" connect="1" arrows="1" fold="1" page="1" pageScale="1" pageWidth="827" pageHeight="1169" math="0" shadow="0">
      <root>
        <mxCell id="0" />
        <mxCell id="1" parent="0" />
        <mxCell id="7jRNb0pfBzlfmjaIJ2dO-1" value="Модуль инициализации" style="rounded=0;whiteSpace=wrap;html=1;" parent="1" vertex="1">
          <mxGeometry x="320" y="80" width="480" height="60" as="geometry" />
        </mxCell>
        <mxCell id="zf3PCYjUZS8d0NQUMntq-1" value="" style="shape=flexArrow;endArrow=classic;html=1;rounded=0;entryX=0.5;entryY=0;entryDx=0;entryDy=0;exitX=0.5;exitY=1;exitDx=0;exitDy=0;" parent="1" source="7jRNb0pfBzlfmjaIJ2dO-1" target="zf3PCYjUZS8d0NQUMntq-3" edge="1">
          <mxGeometry width="50" height="50" relative="1" as="geometry">
            <mxPoint x="160" y="240" as="sourcePoint" />
            <mxPoint x="210" y="190" as="targetPoint" />
          </mxGeometry>
        </mxCell>
        <mxCell id="zf3PCYjUZS8d0NQUMntq-3" value="Модуль конфигураций" style="swimlane;whiteSpace=wrap;html=1;" parent="1" vertex="1">
          <mxGeometry x="320" y="250" width="480" height="360" as="geometry" />
        </mxCell>
        <mxCell id="zf3PCYjUZS8d0NQUMntq-4" value="Чтение аргументов" style="rounded=0;whiteSpace=wrap;html=1;" parent="zf3PCYjUZS8d0NQUMntq-3" vertex="1">
          <mxGeometry x="10" y="40" width="460" height="60" as="geometry" />
        </mxCell>
        <mxCell id="zf3PCYjUZS8d0NQUMntq-5" value="Контекст конфигураций" style="rounded=0;whiteSpace=wrap;html=1;" parent="zf3PCYjUZS8d0NQUMntq-3" vertex="1">
          <mxGeometry x="10" y="140" width="460" height="60" as="geometry" />
        </mxCell>
        <mxCell id="zf3PCYjUZS8d0NQUMntq-6" value="" style="shape=flexArrow;endArrow=classic;html=1;rounded=0;entryX=0.5;entryY=0;entryDx=0;entryDy=0;exitX=0.5;exitY=1;exitDx=0;exitDy=0;" parent="zf3PCYjUZS8d0NQUMntq-3" source="zf3PCYjUZS8d0NQUMntq-4" target="zf3PCYjUZS8d0NQUMntq-5" edge="1">
          <mxGeometry width="50" height="50" relative="1" as="geometry">
            <mxPoint x="240" y="-40" as="sourcePoint" />
            <mxPoint x="240" y="20" as="targetPoint" />
          </mxGeometry>
        </mxCell>
        <mxCell id="zf3PCYjUZS8d0NQUMntq-7" value="Чтение конфигурационных файлов" style="swimlane;whiteSpace=wrap;html=1;" parent="zf3PCYjUZS8d0NQUMntq-3" vertex="1">
          <mxGeometry x="10" y="240" width="460" height="100" as="geometry" />
        </mxCell>
        <mxCell id="zf3PCYjUZS8d0NQUMntq-10" value="YAML" style="rounded=0;whiteSpace=wrap;html=1;" parent="zf3PCYjUZS8d0NQUMntq-7" vertex="1">
          <mxGeometry x="10" y="35" width="130" height="55" as="geometry" />
        </mxCell>
        <mxCell id="zf3PCYjUZS8d0NQUMntq-11" value="ENV" style="rounded=0;whiteSpace=wrap;html=1;" parent="zf3PCYjUZS8d0NQUMntq-7" vertex="1">
          <mxGeometry x="160" y="35" width="140" height="55" as="geometry" />
        </mxCell>
        <mxCell id="zf3PCYjUZS8d0NQUMntq-12" value="JSON" style="rounded=0;whiteSpace=wrap;html=1;" parent="zf3PCYjUZS8d0NQUMntq-7" vertex="1">
          <mxGeometry x="320" y="35" width="130" height="55" as="geometry" />
        </mxCell>
        <mxCell id="zf3PCYjUZS8d0NQUMntq-8" value="" style="shape=flexArrow;endArrow=classic;html=1;rounded=0;entryX=0.5;entryY=0;entryDx=0;entryDy=0;exitX=0.5;exitY=1;exitDx=0;exitDy=0;" parent="zf3PCYjUZS8d0NQUMntq-3" source="zf3PCYjUZS8d0NQUMntq-5" target="zf3PCYjUZS8d0NQUMntq-7" edge="1">
          <mxGeometry width="50" height="50" relative="1" as="geometry">
            <mxPoint x="240" y="110" as="sourcePoint" />
            <mxPoint x="240" y="150" as="targetPoint" />
          </mxGeometry>
        </mxCell>
        <mxCell id="GFyRpYxaPs4r8nvnvYJw-1" value="Vertical Container" style="swimlane;whiteSpace=wrap;html=1;" vertex="1" parent="1">
          <mxGeometry x="320" y="720" width="480" height="400" as="geometry" />
        </mxCell>
      </root>
    </mxGraphModel>
  </diagram>
</mxfile>
